<svg xmlns="http://www.w3.org/2000/svg" viewBox="0 0 1740 1440">
  <g opacity='0.3'>
    <g>
      <path isolation='isolate' opacity='0.2' d="M953.74,983.93v22a3,3,0,0,0,3,3h22a3,3,0,0,0,3-3v-22a3,3,0,0,0-3-3h-22A3,3,0,0,0,953.74,983.93Z"/>
      <path isolation='isolate' opacity='0.2' d="M953.74,823V801a3,3,0,0,1,3-3h22a3,3,0,0,1,3,3v22a3,3,0,0,1-3,3h-22A3,3,0,0,1,953.74,823Z"/>
      <path isolation='isolate' opacity='0.2' d="M953.74,685.75v-22a3,3,0,0,1,3-3h22a3,3,0,0,1,3,3v22a3,3,0,0,1-3,3h-22A3,3,0,0,1,953.74,685.75Z"/>
      <path isolation='isolate' opacity='0.2' d="M981.74,228.37v-22a3,3,0,0,0-3-3h-22a3,3,0,0,0-3,3v22a3,3,0,0,0,3,3h22A3,3,0,0,0,981.74,228.37Z"/>
      <path isolation='isolate' opacity='0.2' d="M785,983.93v22a3,3,0,0,1-3,3H760a3,3,0,0,1-3-3v-22a3,3,0,0,1,3-3h22A3,3,0,0,1,785,983.93Z"/>
      <path isolation='isolate' opacity='0.2' d="M785,823V801a3,3,0,0,0-3-3H760a3,3,0,0,0-3,3v22a3,3,0,0,0,3,3h22A3,3,0,0,0,785,823Z"/>
      <path isolation='isolate' opacity='0.2' d="M785,685.75v-22a3,3,0,0,0-3-3H760a3,3,0,0,0-3,3v22a3,3,0,0,0,3,3h22A3,3,0,0,0,785,685.75Z"/>
      <path isolation='isolate' opacity='0.2' d="M757,228.37v-22a3,3,0,0,1,3-3h22a3,3,0,0,1,3,3v22a3,3,0,0,1-3,3H760A3,3,0,0,1,757,228.37Z"/>
      <path isolation='isolate' opacity='0.2' d="M926.74,389.59v22a3,3,0,0,1-3,3h-22a3,3,0,0,1-3-3v-22a3,3,0,0,1,3-3h22A3,3,0,0,1,926.74,389.59Z"/>
      <path isolation='isolate' opacity='0.2' d="M879,1029.93v22a3,3,0,0,1-3,3H854a3,3,0,0,1-3-3v-22a3,3,0,0,1,3-3h22A3,3,0,0,1,879,1029.93Z"/>
      <path isolation='isolate' opacity='0.2' d="M833.22,389.59v22a3,3,0,0,1-3,3h-22a3,3,0,0,1-3-3v-22a3,3,0,0,1,3-3h22A3,3,0,0,1,833.22,389.59Z"/>
      <path isolation='isolate' opacity='0.2' d="M879,869V847a3,3,0,0,0-3-3H854a3,3,0,0,0-3,3v22a3,3,0,0,0,3,3h22A3,3,0,0,0,879,869Z"/>
      <path isolation='isolate' opacity='0.2' d="M879,435.33v22a3,3,0,0,1-3,3H854a3,3,0,0,1-3-3v-22a3,3,0,0,1,3-3h22A3,3,0,0,1,879,435.33Z"/>
      <path isolation='isolate' opacity='0.2' d="M879,731.75v-22a3,3,0,0,0-3-3H854a3,3,0,0,0-3,3v22a3,3,0,0,0,3,3h22A3,3,0,0,0,879,731.75Z"/>
      <path isolation='isolate' opacity='0.2' d="M851,274.37v-22a3,3,0,0,1,3-3h22a3,3,0,0,1,3,3v22a3,3,0,0,1-3,3H854A3,3,0,0,1,851,274.37Z"/>
      <path isolation='isolate' opacity='0.2' d="M833.11,1324.66v-22a3,3,0,0,0-3-3h-22a3,3,0,0,0-3,3v22a3,3,0,0,0,3,3h22A3,3,0,0,0,833.11,1324.66Z"/>
      <path isolation='isolate' opacity='0.2' d="M930.91,1372v-22a3,3,0,0,0-3-3h-22a3,3,0,0,0-3,3v22a3,3,0,0,0,3,3h22A3,3,0,0,0,930.91,1372Z"/>
    </g>
    <g opacity='0.4'>
      <path isolation='isolate' opacity='0.5' d="M981.74,526.54v22a3,3,0,0,1-3,3h-22a3,3,0,0,1-3-3v-22a3,3,0,0,1,3-3h22A3,3,0,0,1,981.74,526.54Z"/>
      <path isolation='isolate' opacity='0.5' d="M953.74,1075.41v22a3,3,0,0,0,3,3h22a3,3,0,0,0,3-3v-22a3,3,0,0,0-3-3h-22A3,3,0,0,0,953.74,1075.41Z"/>
      <path isolation='isolate' opacity='0.5' d="M981.74,114.9v22a3,3,0,0,1-3,3h-22a3,3,0,0,1-3-3v-22a3,3,0,0,1,3-3h22A3,3,0,0,1,981.74,114.9Z"/>
      <path isolation='isolate' opacity='0.5' d="M981.74,709.49v22a3,3,0,0,1-3,3h-22a3,3,0,0,1-3-3v-22a3,3,0,0,1,3-3h22A3,3,0,0,1,981.74,709.49Z"/>
      <path isolation='isolate' opacity='0.5' d="M757,526.54v22a3,3,0,0,0,3,3h22a3,3,0,0,0,3-3v-22a3,3,0,0,0-3-3H760A3,3,0,0,0,757,526.54Z"/>
      <path isolation='isolate' opacity='0.5' d="M785,1075.41v22a3,3,0,0,1-3,3H760a3,3,0,0,1-3-3v-22a3,3,0,0,1,3-3h22A3,3,0,0,1,785,1075.41Z"/>
      <path isolation='isolate' opacity='0.5' d="M757,114.9v22a3,3,0,0,0,3,3h22a3,3,0,0,0,3-3v-22a3,3,0,0,0-3-3H760A3,3,0,0,0,757,114.9Z"/>
      <path isolation='isolate' opacity='0.5' d="M757,709.49v22a3,3,0,0,0,3,3h22a3,3,0,0,0,3-3v-22a3,3,0,0,0-3-3H760A3,3,0,0,0,757,709.49Z"/>
      <path isolation='isolate' opacity='0.5' d="M898.74,320.11v-22a3,3,0,0,1,3-3h22a3,3,0,0,1,3,3v22a3,3,0,0,1-3,3h-22A3,3,0,0,1,898.74,320.11Z"/>
      <path isolation='isolate' opacity='0.6' d="M898.74,1280.62v-22a3,3,0,0,1,3-3h22a3,3,0,0,1,3,3v22a3,3,0,0,1-3,3h-22A3,3,0,0,1,898.74,1280.62Z"/>
      <path class="a8cc3a24-2538-4b68-ad22-882c04501f4d" d="M898.74,618.28v22a3,3,0,0,0,3,3h22a3,3,0,0,0,3-3v-22a3,3,0,0,0-3-3h-22A3,3,0,0,0,898.74,618.28Z"/>
      <path isolation='isolate' opacity='0.5' d="M805.22,572.54v22a3,3,0,0,0,3,3h22a3,3,0,0,0,3-3v-22a3,3,0,0,0-3-3h-22A3,3,0,0,0,805.22,572.54Z"/>
      <path isolation='isolate' opacity='0.5' d="M851,572.54v22a3,3,0,0,0,3,3h22a3,3,0,0,0,3-3v-22a3,3,0,0,0-3-3H854A3,3,0,0,0,851,572.54Z"/>
      <path isolation='isolate' opacity='0.5' d="M879,1121.41v22a3,3,0,0,1-3,3H854a3,3,0,0,1-3-3v-22a3,3,0,0,1,3-3h22A3,3,0,0,1,879,1121.41Z"/>
      <path isolation='isolate' opacity='0.5' d="M833.22,823.23v-22a3,3,0,0,0-3-3h-22a3,3,0,0,0-3,3v22a3,3,0,0,0,3,3h22A3,3,0,0,0,833.22,823.23Z"/>
      <path isolation='isolate' opacity='0.5' d="M851,160.9v22a3,3,0,0,0,3,3h22a3,3,0,0,0,3-3v-22a3,3,0,0,0-3-3H854A3,3,0,0,0,851,160.9Z"/>
      <path isolation='isolate' opacity='0.5' d="M851,755.49v22a3,3,0,0,0,3,3h22a3,3,0,0,0,3-3v-22a3,3,0,0,0-3-3H854A3,3,0,0,0,851,755.49Z"/>
      <path isolation='isolate' opacity='0.5' d="M805.11,1350v22a3,3,0,0,0,3,3h22a3,3,0,0,0,3-3v-22a3,3,0,0,0-3-3h-22A3,3,0,0,0,805.11,1350Z"/>
    </g>
    <g>
      <path opacity='0.6' d="M953.74,297.85v22a3,3,0,0,0,3,3h22a3,3,0,0,0,3-3v-22a3,3,0,0,0-3-3h-22A3,3,0,0,0,953.74,297.85Z"/>
      <path isolation='isolate' opacity='0.6' d="M953.74,868.71v-22a3,3,0,0,1,3-3h22a3,3,0,0,1,3,3v22a3,3,0,0,1-3,3h-22A3,3,0,0,1,953.74,868.71Z"/>
      <path isolation='isolate' opacity='0.6' d="M981.74,1372v-22a3,3,0,0,0-3-3h-22a3,3,0,0,0-3,3v22a3,3,0,0,0,3,3h22A3,3,0,0,0,981.74,1372Z"/>
      <path isolation='isolate' opacity='0.6' d="M981.74,1188.89v-22a3,3,0,0,0-3-3h-22a3,3,0,0,0-3,3v22a3,3,0,0,0,3,3h22A3,3,0,0,0,981.74,1188.89Z"/>
      <path opacity='0.6' d="M785,297.85v22a3,3,0,0,1-3,3H760a3,3,0,0,1-3-3v-22a3,3,0,0,1,3-3h22A3,3,0,0,1,785,297.85Z"/>
      <path isolation='isolate' opacity='0.6' d="M785,868.71v-22a3,3,0,0,0-3-3H760a3,3,0,0,0-3,3v22a3,3,0,0,0,3,3h22A3,3,0,0,0,785,868.71Z"/>
      <path isolation='isolate' opacity='0.6' d="M757,1372v-22a3,3,0,0,1,3-3h22a3,3,0,0,1,3,3v22a3,3,0,0,1-3,3H760A3,3,0,0,1,757,1372Z"/>
      <path isolation='isolate' opacity='0.6' d="M757,1188.89v-22a3,3,0,0,1,3-3h22a3,3,0,0,1,3,3v22a3,3,0,0,1-3,3H760A3,3,0,0,1,757,1188.89Z"/>
      <path isolation='isolate' opacity='0.6' d="M926.74,869V847a3,3,0,0,0-3-3h-22a3,3,0,0,0-3,3v22a3,3,0,0,0,3,3h22A3,3,0,0,0,926.74,869Z"/>
      <path isolation='isolate' opacity='0.6' d="M926.74,731.75v-22a3,3,0,0,0-3-3h-22a3,3,0,0,0-3,3v22a3,3,0,0,0,3,3h22A3,3,0,0,0,926.74,731.75Z"/>
      <path isolation='isolate' opacity='0.6' d="M833.22,1075.67v22a3,3,0,0,1-3,3h-22a3,3,0,0,1-3-3v-22a3,3,0,0,1,3-3h22A3,3,0,0,1,833.22,1075.67Z"/>
      <path isolation='isolate' opacity='0.6' d="M805.22,526.8v22a3,3,0,0,0,3,3h22a3,3,0,0,0,3-3v-22a3,3,0,0,0-3-3h-22A3,3,0,0,0,805.22,526.8Z"/>
      <path opacity='0.6' d="M879,343.85v22a3,3,0,0,1-3,3H854a3,3,0,0,1-3-3v-22a3,3,0,0,1,3-3h22A3,3,0,0,1,879,343.85Z"/>
      <path isolation='isolate' opacity='0.6' d="M879,938.46v22a3,3,0,0,1-3,3H854a3,3,0,0,1-3-3v-22a3,3,0,0,1,3-3h22A3,3,0,0,1,879,938.46Z"/>
      <path isolation='isolate' opacity='0.6' d="M879,914.71v-22a3,3,0,0,0-3-3H854a3,3,0,0,0-3,3v22a3,3,0,0,0,3,3h22A3,3,0,0,0,879,914.71Z"/>
      <path opacity='0.6' d="M805.22,320.11v-22a3,3,0,0,1,3-3h22a3,3,0,0,1,3,3v22a3,3,0,0,1-3,3h-22A3,3,0,0,1,805.22,320.11Z"/>
      <path opacity='0.6' d="M805.22,160.9v22a3,3,0,0,0,3,3h22a3,3,0,0,0,3-3v-22a3,3,0,0,0-3-3h-22A3,3,0,0,0,805.22,160.9Z"/>
      <path opacity='0.6' d="M851,113.64v22a3,3,0,0,0,3,3h22a3,3,0,0,0,3-3v-22a3,3,0,0,0-3-3H854A3,3,0,0,0,851,113.64Z"/>
      <path isolation='isolate' opacity='0.6' d="M805.22,1280.62v-22a3,3,0,0,1,3-3h22a3,3,0,0,1,3,3v22a3,3,0,0,1-3,3h-22A3,3,0,0,1,805.22,1280.62Z"/>
      <path isolation='isolate' opacity='0.6' d="M880.89,1324.66v-22a3,3,0,0,0-3-3h-22a3,3,0,0,0-3,3v22a3,3,0,0,0,3,3h22A3,3,0,0,0,880.89,1324.66Z"/>
    </g>
    <g>
      <path opacity='0.8' d="M953.74,1029.67v22a3,3,0,0,0,3,3h22a3,3,0,0,0,3-3v-22a3,3,0,0,0-3-3h-22A3,3,0,0,0,953.74,1029.67Z"/>
      <path opacity='0.8' d="M981.74,1417.58v-22a3,3,0,0,0-3-3h-22a3,3,0,0,0-3,3v22a3,3,0,0,0,3,3h22A3,3,0,0,0,981.74,1417.58Z"/>
      <path opacity='0.8' d="M833.11,1417.58v-22a3,3,0,0,0-3-3h-22a3,3,0,0,0-3,3v22a3,3,0,0,0,3,3h22A3,3,0,0,0,833.11,1417.58Z"/>
      <path opacity='0.8' d="M981.74,23.42v22a3,3,0,0,1-3,3h-22a3,3,0,0,1-3-3v-22a3,3,0,0,1,3-3h22A3,3,0,0,1,981.74,23.42Z"/>
      <path opacity='0.8' d="M981.74,1280.36v-22a3,3,0,0,0-3-3h-22a3,3,0,0,0-3,3v22a3,3,0,0,0,3,3h22A3,3,0,0,0,981.74,1280.36Z"/>
      <path opacity='0.8' d="M785,1029.67v22a3,3,0,0,1-3,3H760a3,3,0,0,1-3-3v-22a3,3,0,0,1,3-3h22A3,3,0,0,1,785,1029.67Z"/>
      <path opacity='0.8' d="M757,23.42v22a3,3,0,0,0,3,3h22a3,3,0,0,0,3-3v-22a3,3,0,0,0-3-3H760A3,3,0,0,0,757,23.42Z"/>
      <path opacity='0.8' d="M757,1280.36v-22a3,3,0,0,1,3-3h22a3,3,0,0,1,3,3v22a3,3,0,0,1-3,3H760A3,3,0,0,1,757,1280.36Z"/>
      <path opacity='0.8' d="M898.74,755.49v22a3,3,0,0,0,3,3h22a3,3,0,0,0,3-3v-22a3,3,0,0,0-3-3h-22A3,3,0,0,0,898.74,755.49Z"/>
      <path opacity='0.8' d="M898.74,481.06v22a3,3,0,0,0,3,3h22a3,3,0,0,0,3-3v-22a3,3,0,0,0-3-3h-22A3,3,0,0,0,898.74,481.06Z"/>
      <path opacity='0.8' d="M926.74,435.33v22a3,3,0,0,1-3,3h-22a3,3,0,0,1-3-3v-22a3,3,0,0,1,3-3h22A3,3,0,0,1,926.74,435.33Z"/>
      <path opacity='0.8' d="M926.74,1121.41v22a3,3,0,0,1-3,3h-22a3,3,0,0,1-3-3v-22a3,3,0,0,1,3-3h22A3,3,0,0,1,926.74,1121.41Z"/>
      <path opacity='0.8' d="M926.74,938.46v22a3,3,0,0,1-3,3h-22a3,3,0,0,1-3-3v-22a3,3,0,0,1,3-3h22A3,3,0,0,1,926.74,938.46Z"/>
      <path opacity='0.8' d="M926.74,1167.15v22a3,3,0,0,1-3,3h-22a3,3,0,0,1-3-3v-22a3,3,0,0,1,3-3h22A3,3,0,0,1,926.74,1167.15Z"/>
      <path opacity='0.8' d="M898.74,274.37v-22a3,3,0,0,1,3-3h22a3,3,0,0,1,3,3v22a3,3,0,0,1-3,3h-22A3,3,0,0,1,898.74,274.37Z"/>
      <path opacity='0.8' d="M898.74,1051.93v-22a3,3,0,0,1,3-3h22a3,3,0,0,1,3,3v22a3,3,0,0,1-3,3h-22A3,3,0,0,1,898.74,1051.93Z"/>
      <path opacity='0.8' d="M879,1075.67v22a3,3,0,0,1-3,3H854a3,3,0,0,1-3-3v-22a3,3,0,0,1,3-3h22A3,3,0,0,1,879,1075.67Z"/>
      <path opacity='0.8' d="M805.22,69.42v22a3,3,0,0,0,3,3h22a3,3,0,0,0,3-3v-22a3,3,0,0,0-3-3h-22A3,3,0,0,0,805.22,69.42Z"/>
      <path opacity='0.8' d="M805.22,206.64v22a3,3,0,0,0,3,3h22a3,3,0,0,0,3-3v-22a3,3,0,0,0-3-3h-22A3,3,0,0,0,805.22,206.64Z"/>
      <path opacity='0.8' d="M805.22,1234.89v-22a3,3,0,0,1,3-3h22a3,3,0,0,1,3,3v22a3,3,0,0,1-3,3h-22A3,3,0,0,1,805.22,1234.89Z"/>
      <path opacity='0.8' d="M805.22,618.28v22a3,3,0,0,0,3,3h22a3,3,0,0,0,3-3v-22a3,3,0,0,0-3-3h-22A3,3,0,0,0,805.22,618.28Z"/>
      <path opacity='0.8' d="M805.22,755.49v22a3,3,0,0,0,3,3h22a3,3,0,0,0,3-3v-22a3,3,0,0,0-3-3h-22A3,3,0,0,0,805.22,755.49Z"/>
      <path opacity='0.8' d="M852.89,1350v22a3,3,0,0,0,3,3h22a3,3,0,0,0,3-3v-22a3,3,0,0,0-3-3h-22A3,3,0,0,0,852.89,1350Z"/>
    </g>
    <g opacity='0.8'>
      <path opacity='0.8' d="M1073.22,526.54v22a3,3,0,0,1-3,3h-22a3,3,0,0,1-3-3v-22a3,3,0,0,1,3-3h22A3,3,0,0,1,1073.22,526.54Z"/>
      <path opacity='0.8' d="M1045.22,435.06v22a3,3,0,0,0,3,3h22a3,3,0,0,0,3-3v-22a3,3,0,0,0-3-3h-22A3,3,0,0,0,1045.22,435.06Z"/>
      <path opacity='0.8' d="M1045.22,938.2v22a3,3,0,0,0,3,3h22a3,3,0,0,0,3-3v-22a3,3,0,0,0-3-3h-22A3,3,0,0,0,1045.22,938.2Z"/>
      <path opacity='0.8' d="M1045.22,777.23v-22a3,3,0,0,1,3-3h22a3,3,0,0,1,3,3v22a3,3,0,0,1-3,3h-22A3,3,0,0,1,1045.22,777.23Z"/>
      <path opacity='0.8' d="M1073.22,228.37v-22a3,3,0,0,0-3-3h-22a3,3,0,0,0-3,3v22a3,3,0,0,0,3,3h22A3,3,0,0,0,1073.22,228.37Z"/>
      <path opacity='0.8' d="M1027.48,160.64v22a3,3,0,0,1-3,3h-22a3,3,0,0,1-3-3v-22a3,3,0,0,1,3-3h22A3,3,0,0,1,1027.48,160.64Z"/>
      <path opacity='0.8' d="M1073.22,160.64v22a3,3,0,0,1-3,3h-22a3,3,0,0,1-3-3v-22a3,3,0,0,1,3-3h22A3,3,0,0,1,1073.22,160.64Z"/>
      <path opacity='0.8' d="M1027.48,1234.62v-22a3,3,0,0,0-3-3h-22a3,3,0,0,0-3,3v22a3,3,0,0,0,3,3h22A3,3,0,0,0,1027.48,1234.62Z"/>
      <path opacity='0.8' d="M1027.48,1188.89v-22a3,3,0,0,0-3-3h-22a3,3,0,0,0-3,3v22a3,3,0,0,0,3,3h22A3,3,0,0,0,1027.48,1188.89Z"/>
      <path opacity='0.8' d="M1027.48,572.28v22a3,3,0,0,1-3,3h-22a3,3,0,0,1-3-3v-22a3,3,0,0,1,3-3h22A3,3,0,0,1,1027.48,572.28Z"/>
      <path opacity='0.8' d="M1027.48,709.49v22a3,3,0,0,1-3,3h-22a3,3,0,0,1-3-3v-22a3,3,0,0,1,3-3h22A3,3,0,0,1,1027.48,709.49Z"/>
      <path isolation='isolate' opacity='0.6' d="M999.48,1029.67v22a3,3,0,0,0,3,3h22a3,3,0,0,0,3-3v-22a3,3,0,0,0-3-3h-22A3,3,0,0,0,999.48,1029.67Z"/>
      <path isolation='isolate' opacity='0.6' d="M1027.48,480.8v22a3,3,0,0,1-3,3h-22a3,3,0,0,1-3-3v-22a3,3,0,0,1,3-3h22A3,3,0,0,1,1027.48,480.8Z"/>
      <path isolation='isolate' opacity='0.6' d="M1045.22,1121.15v22a3,3,0,0,0,3,3h22a3,3,0,0,0,3-3v-22a3,3,0,0,0-3-3h-22A3,3,0,0,0,1045.22,1121.15Z"/>
      <path isolation='isolate' opacity='0.6' d="M1045.22,640V618a3,3,0,0,1,3-3h22a3,3,0,0,1,3,3v22a3,3,0,0,1-3,3h-22A3,3,0,0,1,1045.22,640Z"/>
      <path opacity='0.6' d="M1027.48,274.11v-22a3,3,0,0,0-3-3h-22a3,3,0,0,0-3,3v22a3,3,0,0,0,3,3h22A3,3,0,0,0,1027.48,274.11Z"/>
      <path opacity='0.6' d="M1027.48,114.9v22a3,3,0,0,1-3,3h-22a3,3,0,0,1-3-3v-22a3,3,0,0,1,3-3h22A3,3,0,0,1,1027.48,114.9Z"/>
      <path isolation='isolate' opacity='0.7' d="M1045.22,343.59v22a3,3,0,0,0,3,3h22a3,3,0,0,0,3-3v-22a3,3,0,0,0-3-3h-22A3,3,0,0,0,1045.22,343.59Z"/>
      <path isolation='isolate' opacity='0.5' d="M1045.22,297.85v22a3,3,0,0,0,3,3h22a3,3,0,0,0,3-3v-22a3,3,0,0,0-3-3h-22A3,3,0,0,0,1045.22,297.85Z"/>
      <path isolation='isolate' opacity='0.5' d="M1045.22,1029.67v22a3,3,0,0,0,3,3h22a3,3,0,0,0,3-3v-22a3,3,0,0,0-3-3h-22A3,3,0,0,0,1045.22,1029.67Z"/>
      <path isolation='isolate' opacity='0.5' d="M1045.22,892.46v22a3,3,0,0,0,3,3h22a3,3,0,0,0,3-3v-22a3,3,0,0,0-3-3h-22A3,3,0,0,0,1045.22,892.46Z"/>
      <path isolation='isolate' opacity='0.5' d="M1045.22,868.71v-22a3,3,0,0,1,3-3h22a3,3,0,0,1,3,3v22a3,3,0,0,1-3,3h-22A3,3,0,0,1,1045.22,868.71Z"/>
      <path isolation='isolate' opacity='0.5' d="M999.48,777.23v-22a3,3,0,0,1,3-3h22a3,3,0,0,1,3,3v22a3,3,0,0,1-3,3h-22A3,3,0,0,1,999.48,777.23Z"/>
      <path isolation='isolate' opacity='0.2' d="M1073.22,480.8v22a3,3,0,0,1-3,3h-22a3,3,0,0,1-3-3v-22a3,3,0,0,1,3-3h22A3,3,0,0,1,1073.22,480.8Z"/>
      <path isolation='isolate' opacity='0.2' d="M999.48,389.33v22a3,3,0,0,0,3,3h22a3,3,0,0,0,3-3v-22a3,3,0,0,0-3-3h-22A3,3,0,0,0,999.48,389.33Z"/>
      <path isolation='isolate' opacity='0.2' d="M1045.22,685.75v-22a3,3,0,0,1,3-3h22a3,3,0,0,1,3,3v22a3,3,0,0,1-3,3h-22A3,3,0,0,1,1045.22,685.75Z"/>
      <path isolation='isolate' opacity='0.2' d="M1073.22,1326.1v-22a3,3,0,0,0-3-3h-22a3,3,0,0,0-3,3v22a3,3,0,0,0,3,3h22A3,3,0,0,0,1073.22,1326.1Z"/>
      <path isolation='isolate' opacity='0.2' d="M1073.22,67.64v22a3,3,0,0,1-3,3h-22a3,3,0,0,1-3-3v-22a3,3,0,0,1,3-3h22A3,3,0,0,1,1073.22,67.64Z"/>
      <path isolation='isolate' opacity='0.2' d="M1073.22,23.42v22a3,3,0,0,1-3,3h-22a3,3,0,0,1-3-3v-22a3,3,0,0,1,3-3h22A3,3,0,0,1,1073.22,23.42Z"/>
      <path isolation='isolate' opacity='0.2' d="M1073.22,1188.89v-22a3,3,0,0,0-3-3h-22a3,3,0,0,0-3,3v22a3,3,0,0,0,3,3h22A3,3,0,0,0,1073.22,1188.89Z"/>
      <path isolation='isolate' opacity='0.2' d="M1073.22,572.28v22a3,3,0,0,1-3,3h-22a3,3,0,0,1-3-3v-22a3,3,0,0,1,3-3h22A3,3,0,0,1,1073.22,572.28Z"/>
    </g>
    <g opacity='0.7'>
      <path opacity='0.8' d="M1119,709.49v22a3,3,0,0,1-3,3h-22a3,3,0,0,1-3-3v-22a3,3,0,0,1,3-3h22A3,3,0,0,1,1119,709.49Z"/>
      <path opacity='0.8' d="M1119,435.06v22a3,3,0,0,1-3,3h-22a3,3,0,0,1-3-3v-22a3,3,0,0,1,3-3h22A3,3,0,0,1,1119,435.06Z"/>
      <path opacity='0.8' d="M1091,389.33v22a3,3,0,0,0,3,3h22a3,3,0,0,0,3-3v-22a3,3,0,0,0-3-3h-22A3,3,0,0,0,1091,389.33Z"/>
      <path opacity='0.8' d="M1091,1075.41v22a3,3,0,0,0,3,3h22a3,3,0,0,0,3-3v-22a3,3,0,0,0-3-3h-22A3,3,0,0,0,1091,1075.41Z"/>
      <path opacity='0.8' d="M1091,892.46v22a3,3,0,0,0,3,3h22a3,3,0,0,0,3-3v-22a3,3,0,0,0-3-3h-22A3,3,0,0,0,1091,892.46Z"/>
      <path opacity='0.8' d="M1091,1121.15v22a3,3,0,0,0,3,3h22a3,3,0,0,0,3-3v-22a3,3,0,0,0-3-3h-22A3,3,0,0,0,1091,1121.15Z"/>
      <path opacity='0.8' d="M1119,228.37v-22a3,3,0,0,0-3-3h-22a3,3,0,0,0-3,3v22a3,3,0,0,0,3,3h22A3,3,0,0,0,1119,228.37Z"/>
      <path opacity='0.8' d="M1119,1280.36v-22a3,3,0,0,0-3-3h-22a3,3,0,0,0-3,3v22a3,3,0,0,0,3,3h22A3,3,0,0,0,1119,1280.36Z"/>
      <path opacity='0.8' d="M1119,1005.93v-22a3,3,0,0,0-3-3h-22a3,3,0,0,0-3,3v22a3,3,0,0,0,3,3h22A3,3,0,0,0,1119,1005.93Z"/>
      <path opacity='0.8' d="M1138.74,1029.67v22a3,3,0,0,0,3,3h22a3,3,0,0,0,3-3v-22a3,3,0,0,0-3-3h-22A3,3,0,0,0,1138.74,1029.67Z"/>
      <path opacity='0.8' d="M1166.74,1417.58v-22a3,3,0,0,0-3-3h-22a3,3,0,0,0-3,3v22a3,3,0,0,0,3,3h22A3,3,0,0,0,1166.74,1417.58Z"/>
      <path opacity='0.8' d="M1166.74,1280.36v-22a3,3,0,0,0-3-3h-22a3,3,0,0,0-3,3v22a3,3,0,0,0,3,3h22A3,3,0,0,0,1166.74,1280.36Z"/>
      <path isolation='isolate' opacity='0.6' d="M1091,823V801a3,3,0,0,1,3-3h22a3,3,0,0,1,3,3v22a3,3,0,0,1-3,3h-22A3,3,0,0,1,1091,823Z"/>
      <path isolation='isolate' opacity='0.6' d="M1091,685.75v-22a3,3,0,0,1,3-3h22a3,3,0,0,1,3,3v22a3,3,0,0,1-3,3h-22A3,3,0,0,1,1091,685.75Z"/>
      <path opacity='0.6' d="M1138.74,297.85v22a3,3,0,0,0,3,3h22a3,3,0,0,0,3-3v-22a3,3,0,0,0-3-3h-22A3,3,0,0,0,1138.74,297.85Z"/>
      <path isolation='isolate' opacity='0.6' d="M1138.74,892.46v22a3,3,0,0,0,3,3h22a3,3,0,0,0,3-3v-22a3,3,0,0,0-3-3h-22A3,3,0,0,0,1138.74,892.46Z"/>
      <path isolation='isolate' opacity='0.6' d="M1138.74,868.71v-22a3,3,0,0,1,3-3h22a3,3,0,0,1,3,3v22a3,3,0,0,1-3,3h-22A3,3,0,0,1,1138.74,868.71Z"/>
      <path isolation='isolate' opacity='0.6' d="M1166.74,1326.1v-22a3,3,0,0,0-3-3h-22a3,3,0,0,0-3,3v22a3,3,0,0,0,3,3h22A3,3,0,0,0,1166.74,1326.1Z"/>
      <path opacity='0.6' d="M1166.74,67.64v22a3,3,0,0,1-3,3h-22a3,3,0,0,1-3-3v-22a3,3,0,0,1,3-3h22A3,3,0,0,1,1166.74,67.64Z"/>
      <path isolation='isolate' opacity='0.5' d="M1119,274.11v-22a3,3,0,0,0-3-3h-22a3,3,0,0,0-3,3v22a3,3,0,0,0,3,3h22A3,3,0,0,0,1119,274.11Z"/>
      <path isolation='isolate' opacity='0.6' d="M1119,1234.62v-22a3,3,0,0,0-3-3h-22a3,3,0,0,0-3,3v22a3,3,0,0,0,3,3h22A3,3,0,0,0,1119,1234.62Z"/>
      <path class="a8cc3a24-2538-4b68-ad22-882c04501f4d" d="M1119,572.28v22a3,3,0,0,1-3,3h-22a3,3,0,0,1-3-3v-22a3,3,0,0,1,3-3h22A3,3,0,0,1,1119,572.28Z"/>
      <path isolation='isolate' opacity='0.5' d="M1166.74,526.54v22a3,3,0,0,1-3,3h-22a3,3,0,0,1-3-3v-22a3,3,0,0,1,3-3h22A3,3,0,0,1,1166.74,526.54Z"/>
      <path isolation='isolate' opacity='0.5' d="M1138.74,1075.41v22a3,3,0,0,0,3,3h22a3,3,0,0,0,3-3v-22a3,3,0,0,0-3-3h-22A3,3,0,0,0,1138.74,1075.41Z"/>
      <path isolation='isolate' opacity='0.5' d="M1166.74,114.9v22a3,3,0,0,1-3,3h-22a3,3,0,0,1-3-3v-22a3,3,0,0,1,3-3h22A3,3,0,0,1,1166.74,114.9Z"/>
      <path isolation='isolate' opacity='0.5' d="M1166.74,709.49v22a3,3,0,0,1-3,3h-22a3,3,0,0,1-3-3v-22a3,3,0,0,1,3-3h22A3,3,0,0,1,1166.74,709.49Z"/>
      <path isolation='isolate' opacity='0.2' d="M1091,343.59v22a3,3,0,0,0,3,3h22a3,3,0,0,0,3-3v-22a3,3,0,0,0-3-3h-22A3,3,0,0,0,1091,343.59Z"/>
      <path isolation='isolate' opacity='0.2' d="M1138.74,983.93v22a3,3,0,0,0,3,3h22a3,3,0,0,0,3-3v-22a3,3,0,0,0-3-3h-22A3,3,0,0,0,1138.74,983.93Z"/>
      <path isolation='isolate' opacity='0.2' d="M1138.74,823V801a3,3,0,0,1,3-3h22a3,3,0,0,1,3,3v22a3,3,0,0,1-3,3h-22A3,3,0,0,1,1138.74,823Z"/>
      <path isolation='isolate' opacity='0.2' d="M1138.74,389.33v22a3,3,0,0,0,3,3h22a3,3,0,0,0,3-3v-22a3,3,0,0,0-3-3h-22A3,3,0,0,0,1138.74,389.33Z"/>
      <path isolation='isolate' opacity='0.2' d="M1138.74,685.75v-22a3,3,0,0,1,3-3h22a3,3,0,0,1,3,3v22a3,3,0,0,1-3,3h-22A3,3,0,0,1,1138.74,685.75Z"/>
      <path isolation='isolate' opacity='0.2' d="M1166.74,228.37v-22a3,3,0,0,0-3-3h-22a3,3,0,0,0-3,3v22a3,3,0,0,0,3,3h22A3,3,0,0,0,1166.74,228.37Z"/>
    </g>
    <g isolation='isolate' opacity='0.6'>
      <path opacity='0.8' d="M1258.22,526.54v22a3,3,0,0,1-3,3h-22a3,3,0,0,1-3-3v-22a3,3,0,0,1,3-3h22A3,3,0,0,1,1258.22,526.54Z"/>
      <path opacity='0.8' d="M1230.22,435.06v22a3,3,0,0,0,3,3h22a3,3,0,0,0,3-3v-22a3,3,0,0,0-3-3h-22A3,3,0,0,0,1230.22,435.06Z"/>
      <path opacity='0.8' d="M1230.22,938.2v22a3,3,0,0,0,3,3h22a3,3,0,0,0,3-3v-22a3,3,0,0,0-3-3h-22A3,3,0,0,0,1230.22,938.2Z"/>
      <path opacity='0.8' d="M1230.22,777.23v-22a3,3,0,0,1,3-3h22a3,3,0,0,1,3,3v22a3,3,0,0,1-3,3h-22A3,3,0,0,1,1230.22,777.23Z"/>
      <path opacity='0.8' d="M1258.22,228.37v-22a3,3,0,0,0-3-3h-22a3,3,0,0,0-3,3v22a3,3,0,0,0,3,3h22A3,3,0,0,0,1258.22,228.37Z"/>
      <path opacity='0.8' d="M1212.48,23.42v22a3,3,0,0,1-3,3h-22a3,3,0,0,1-3-3v-22a3,3,0,0,1,3-3h22A3,3,0,0,1,1212.48,23.42Z"/>
      <path opacity='0.8' d="M1258.22,1280.36v-22a3,3,0,0,0-3-3h-22a3,3,0,0,0-3,3v22a3,3,0,0,0,3,3h22A3,3,0,0,0,1258.22,1280.36Z"/>
      <path opacity='0.8' d="M1212.48,160.64v22a3,3,0,0,1-3,3h-22a3,3,0,0,1-3-3v-22a3,3,0,0,1,3-3h22A3,3,0,0,1,1212.48,160.64Z"/>
      <path opacity='0.8' d="M1258.22,160.64v22a3,3,0,0,1-3,3h-22a3,3,0,0,1-3-3v-22a3,3,0,0,1,3-3h22A3,3,0,0,1,1258.22,160.64Z"/>
      <path opacity='0.8' d="M1258.22,67.64v22a3,3,0,0,1-3,3h-22a3,3,0,0,1-3-3v-22a3,3,0,0,1,3-3h22A3,3,0,0,1,1258.22,67.64Z"/>
      <path opacity='0.8' d="M1212.48,1372v-22a3,3,0,0,0-3-3h-22a3,3,0,0,0-3,3v22a3,3,0,0,0,3,3h22A3,3,0,0,0,1212.48,1372Z"/>
      <path opacity='0.8' d="M1212.48,1188.89v-22a3,3,0,0,0-3-3h-22a3,3,0,0,0-3,3v22a3,3,0,0,0,3,3h22A3,3,0,0,0,1212.48,1188.89Z"/>
      <path opacity='0.8' d="M1212.48,572.28v22a3,3,0,0,1-3,3h-22a3,3,0,0,1-3-3v-22a3,3,0,0,1,3-3h22A3,3,0,0,1,1212.48,572.28Z"/>
      <path opacity='0.8' d="M1212.48,709.49v22a3,3,0,0,1-3,3h-22a3,3,0,0,1-3-3v-22a3,3,0,0,1,3-3h22A3,3,0,0,1,1212.48,709.49Z"/>
      <path isolation='isolate' opacity='0.6' d="M1184.48,1029.67v22a3,3,0,0,0,3,3h22a3,3,0,0,0,3-3v-22a3,3,0,0,0-3-3h-22A3,3,0,0,0,1184.48,1029.67Z"/>
      <path isolation='isolate' opacity='0.6' d="M1212.48,480.8v22a3,3,0,0,1-3,3h-22a3,3,0,0,1-3-3v-22a3,3,0,0,1,3-3h22A3,3,0,0,1,1212.48,480.8Z"/>
      <path isolation='isolate' opacity='0.6' d="M1230.22,1121.15v22a3,3,0,0,0,3,3h22a3,3,0,0,0,3-3v-22a3,3,0,0,0-3-3h-22A3,3,0,0,0,1230.22,1121.15Z"/>
      <path isolation='isolate' opacity='0.6' d="M1230.22,640V618a3,3,0,0,1,3-3h22a3,3,0,0,1,3,3v22a3,3,0,0,1-3,3h-22A3,3,0,0,1,1230.22,640Z"/>
      <path opacity='0.6' d="M1212.48,274.11v-22a3,3,0,0,0-3-3h-22a3,3,0,0,0-3,3v22a3,3,0,0,0,3,3h22A3,3,0,0,0,1212.48,274.11Z"/>
      <path opacity='0.6' d="M1212.48,114.9v22a3,3,0,0,1-3,3h-22a3,3,0,0,1-3-3v-22a3,3,0,0,1,3-3h22A3,3,0,0,1,1212.48,114.9Z"/>
      <path isolation='isolate' opacity='0.6' d="M1212.48,1234.62v-22a3,3,0,0,0-3-3h-22a3,3,0,0,0-3,3v22a3,3,0,0,0,3,3h22A3,3,0,0,0,1212.48,1234.62Z"/>
      <path isolation='isolate' opacity='0.5' d="M1212.48,526.54v22a3,3,0,0,1-3,3h-22a3,3,0,0,1-3-3v-22a3,3,0,0,1,3-3h22A3,3,0,0,1,1212.48,526.54Z"/>
      <path isolation='isolate' opacity='0.7' d="M1230.22,343.59v22a3,3,0,0,0,3,3h22a3,3,0,0,0,3-3v-22a3,3,0,0,0-3-3h-22A3,3,0,0,0,1230.22,343.59Z"/>
      <path isolation='isolate' opacity='0.5' d="M1230.22,297.85v22a3,3,0,0,0,3,3h22a3,3,0,0,0,3-3v-22a3,3,0,0,0-3-3h-22A3,3,0,0,0,1230.22,297.85Z"/>
      <path isolation='isolate' opacity='0.5' d="M1230.22,1075.41v22a3,3,0,0,0,3,3h22a3,3,0,0,0,3-3v-22a3,3,0,0,0-3-3h-22A3,3,0,0,0,1230.22,1075.41Z"/>
      <path isolation='isolate' opacity='0.5' d="M1230.22,892.46v22a3,3,0,0,0,3,3h22a3,3,0,0,0,3-3v-22a3,3,0,0,0-3-3h-22A3,3,0,0,0,1230.22,892.46Z"/>
      <path isolation='isolate' opacity='0.5' d="M1230.22,868.71v-22a3,3,0,0,1,3-3h22a3,3,0,0,1,3,3v22a3,3,0,0,1-3,3h-22A3,3,0,0,1,1230.22,868.71Z"/>
      <path isolation='isolate' opacity='0.5' d="M1184.48,777.23v-22a3,3,0,0,1,3-3h22a3,3,0,0,1,3,3v22a3,3,0,0,1-3,3h-22A3,3,0,0,1,1184.48,777.23Z"/>
      <path isolation='isolate' opacity='0.2' d="M1184.48,343.59v22a3,3,0,0,0,3,3h22a3,3,0,0,0,3-3v-22a3,3,0,0,0-3-3h-22A3,3,0,0,0,1184.48,343.59Z"/>
      <path isolation='isolate' opacity='0.2' d="M1230.22,685.75v-22a3,3,0,0,1,3-3h22a3,3,0,0,1,3,3v22a3,3,0,0,1-3,3h-22A3,3,0,0,1,1230.22,685.75Z"/>
      <path isolation='isolate' opacity='0.2' d="M1258.22,1326.1v-22a3,3,0,0,0-3-3h-22a3,3,0,0,0-3,3v22a3,3,0,0,0,3,3h22A3,3,0,0,0,1258.22,1326.1Z"/>
      <path isolation='isolate' opacity='0.2' d="M1258.22,1188.89v-22a3,3,0,0,0-3-3h-22a3,3,0,0,0-3,3v22a3,3,0,0,0,3,3h22A3,3,0,0,0,1258.22,1188.89Z"/>
    </g>
    <g opacity='0.5'>
      <path opacity='0.8' d="M1322.74,1029.67v22a3,3,0,0,0,3,3h22a3,3,0,0,0,3-3v-22a3,3,0,0,0-3-3h-22A3,3,0,0,0,1322.74,1029.67Z"/>
      <path opacity='0.8' d="M1350.74,1280.36v-22a3,3,0,0,0-3-3h-22a3,3,0,0,0-3,3v22a3,3,0,0,0,3,3h22A3,3,0,0,0,1350.74,1280.36Z"/>
      <path opacity='0.8' d="M1304,709.49v22a3,3,0,0,1-3,3h-22a3,3,0,0,1-3-3v-22a3,3,0,0,1,3-3h22A3,3,0,0,1,1304,709.49Z"/>
      <path opacity='0.8' d="M1304,480.8v22a3,3,0,0,1-3,3h-22a3,3,0,0,1-3-3v-22a3,3,0,0,1,3-3h22A3,3,0,0,1,1304,480.8Z"/>
      <path opacity='0.8' d="M1276,389.33v22a3,3,0,0,0,3,3h22a3,3,0,0,0,3-3v-22a3,3,0,0,0-3-3h-22A3,3,0,0,0,1276,389.33Z"/>
      <path opacity='0.8' d="M1276,1075.41v22a3,3,0,0,0,3,3h22a3,3,0,0,0,3-3v-22a3,3,0,0,0-3-3h-22A3,3,0,0,0,1276,1075.41Z"/>
      <path opacity='0.8' d="M1276,892.46v22a3,3,0,0,0,3,3h22a3,3,0,0,0,3-3v-22a3,3,0,0,0-3-3h-22A3,3,0,0,0,1276,892.46Z"/>
      <path opacity='0.8' d="M1304,228.37v-22a3,3,0,0,0-3-3h-22a3,3,0,0,0-3,3v22a3,3,0,0,0,3,3h22A3,3,0,0,0,1304,228.37Z"/>
      <path opacity='0.8' d="M1304,1005.93v-22a3,3,0,0,0-3-3h-22a3,3,0,0,0-3,3v22a3,3,0,0,0,3,3h22A3,3,0,0,0,1304,1005.93Z"/>
      <path opacity='0.6' d="M1322.74,297.85v22a3,3,0,0,0,3,3h22a3,3,0,0,0,3-3v-22a3,3,0,0,0-3-3h-22A3,3,0,0,0,1322.74,297.85Z"/>
      <path isolation='isolate' opacity='0.6' d="M1322.74,868.71v-22a3,3,0,0,1,3-3h22a3,3,0,0,1,3,3v22a3,3,0,0,1-3,3h-22A3,3,0,0,1,1322.74,868.71Z"/>
      <path isolation='isolate' opacity='0.6' d="M1350.74,1188.89v-22a3,3,0,0,0-3-3h-22a3,3,0,0,0-3,3v22a3,3,0,0,0,3,3h22A3,3,0,0,0,1350.74,1188.89Z"/>
      <path isolation='isolate' opacity='0.6' d="M1276,823V801a3,3,0,0,1,3-3h22a3,3,0,0,1,3,3v22a3,3,0,0,1-3,3h-22A3,3,0,0,1,1276,823Z"/>
      <path isolation='isolate' opacity='0.6' d="M1276,685.75v-22a3,3,0,0,1,3-3h22a3,3,0,0,1,3,3v22a3,3,0,0,1-3,3h-22A3,3,0,0,1,1276,685.75Z"/>
      <path isolation='isolate' opacity='0.5' d="M1350.74,526.54v22a3,3,0,0,1-3,3h-22a3,3,0,0,1-3-3v-22a3,3,0,0,1,3-3h22A3,3,0,0,1,1350.74,526.54Z"/>
      <path isolation='isolate' opacity='0.5' d="M1322.74,1075.41v22a3,3,0,0,0,3,3h22a3,3,0,0,0,3-3v-22a3,3,0,0,0-3-3h-22A3,3,0,0,0,1322.74,1075.41Z"/>
      <path isolation='isolate' opacity='0.5' d="M1350.74,709.49v22a3,3,0,0,1-3,3h-22a3,3,0,0,1-3-3v-22a3,3,0,0,1,3-3h22A3,3,0,0,1,1350.74,709.49Z"/>
      <path isolation='isolate' opacity='0.5' d="M1304,274.11v-22a3,3,0,0,0-3-3h-22a3,3,0,0,0-3,3v22a3,3,0,0,0,3,3h22A3,3,0,0,0,1304,274.11Z"/>
      <path isolation='isolate' opacity='0.6' d="M1304,1234.62v-22a3,3,0,0,0-3-3h-22a3,3,0,0,0-3,3v22a3,3,0,0,0,3,3h22A3,3,0,0,0,1304,1234.62Z"/>
      <path class="a8cc3a24-2538-4b68-ad22-882c04501f4d" d="M1304,572.28v22a3,3,0,0,1-3,3h-22a3,3,0,0,1-3-3v-22a3,3,0,0,1,3-3h22A3,3,0,0,1,1304,572.28Z"/>
      <path isolation='isolate' opacity='0.2' d="M1322.74,983.93v22a3,3,0,0,0,3,3h22a3,3,0,0,0,3-3v-22a3,3,0,0,0-3-3h-22A3,3,0,0,0,1322.74,983.93Z"/>
      <path isolation='isolate' opacity='0.2' d="M1322.74,823V801a3,3,0,0,1,3-3h22a3,3,0,0,1,3,3v22a3,3,0,0,1-3,3h-22A3,3,0,0,1,1322.74,823Z"/>
      <path isolation='isolate' opacity='0.2' d="M1322.74,685.75v-22a3,3,0,0,1,3-3h22a3,3,0,0,1,3,3v22a3,3,0,0,1-3,3h-22A3,3,0,0,1,1322.74,685.75Z"/>
      <path isolation='isolate' opacity='0.2' d="M1350.74,228.37v-22a3,3,0,0,0-3-3h-22a3,3,0,0,0-3,3v22a3,3,0,0,0,3,3h22A3,3,0,0,0,1350.74,228.37Z"/>
      <path isolation='isolate' opacity='0.2' d="M1304,526.54v22a3,3,0,0,1-3,3h-22a3,3,0,0,1-3-3v-22a3,3,0,0,1,3-3h22A3,3,0,0,1,1304,526.54Z"/>
      <path isolation='isolate' opacity='0.2' d="M1304,114.9v22a3,3,0,0,1-3,3h-22a3,3,0,0,1-3-3v-22a3,3,0,0,1,3-3h22A3,3,0,0,1,1304,114.9Z"/>
    </g>
    <g opacity='0.4'>
      <path opacity='0.8' d="M1416.22,435.06v22a3,3,0,0,0,3,3h22a3,3,0,0,0,3-3v-22a3,3,0,0,0-3-3h-22A3,3,0,0,0,1416.22,435.06Z"/>
      <path opacity='0.8' d="M1416.22,938.2v22a3,3,0,0,0,3,3h22a3,3,0,0,0,3-3v-22a3,3,0,0,0-3-3h-22A3,3,0,0,0,1416.22,938.2Z"/>
      <path opacity='0.8' d="M1416.22,777.23v-22a3,3,0,0,1,3-3h22a3,3,0,0,1,3,3v22a3,3,0,0,1-3,3h-22A3,3,0,0,1,1416.22,777.23Z"/>
      <path opacity='0.8' d="M1444.22,228.37v-22a3,3,0,0,0-3-3h-22a3,3,0,0,0-3,3v22a3,3,0,0,0,3,3h22A3,3,0,0,0,1444.22,228.37Z"/>
      <path opacity='0.8' d="M1398.48,160.64v22a3,3,0,0,1-3,3h-22a3,3,0,0,1-3-3v-22a3,3,0,0,1,3-3h22A3,3,0,0,1,1398.48,160.64Z"/>
      <path opacity='0.8' d="M1444.22,160.64v22a3,3,0,0,1-3,3h-22a3,3,0,0,1-3-3v-22a3,3,0,0,1,3-3h22A3,3,0,0,1,1444.22,160.64Z"/>
      <path opacity='0.8' d="M1398.48,1234.62v-22a3,3,0,0,0-3-3h-22a3,3,0,0,0-3,3v22a3,3,0,0,0,3,3h22A3,3,0,0,0,1398.48,1234.62Z"/>
      <path opacity='0.8' d="M1398.48,1372v-22a3,3,0,0,0-3-3h-22a3,3,0,0,0-3,3v22a3,3,0,0,0,3,3h22A3,3,0,0,0,1398.48,1372Z"/>
      <path opacity='0.8' d="M1398.48,572.28v22a3,3,0,0,1-3,3h-22a3,3,0,0,1-3-3v-22a3,3,0,0,1,3-3h22A3,3,0,0,1,1398.48,572.28Z"/>
      <path opacity='0.8' d="M1398.48,709.49v22a3,3,0,0,1-3,3h-22a3,3,0,0,1-3-3v-22a3,3,0,0,1,3-3h22A3,3,0,0,1,1398.48,709.49Z"/>
      <path isolation='isolate' opacity='0.6' d="M1370.48,1029.67v22a3,3,0,0,0,3,3h22a3,3,0,0,0,3-3v-22a3,3,0,0,0-3-3h-22A3,3,0,0,0,1370.48,1029.67Z"/>
      <path isolation='isolate' opacity='0.6' d="M1398.48,480.8v22a3,3,0,0,1-3,3h-22a3,3,0,0,1-3-3v-22a3,3,0,0,1,3-3h22A3,3,0,0,1,1398.48,480.8Z"/>
      <path isolation='isolate' opacity='0.6' d="M1416.22,1121.15v22a3,3,0,0,0,3,3h22a3,3,0,0,0,3-3v-22a3,3,0,0,0-3-3h-22A3,3,0,0,0,1416.22,1121.15Z"/>
      <path isolation='isolate' opacity='0.6' d="M1416.22,640V618a3,3,0,0,1,3-3h22a3,3,0,0,1,3,3v22a3,3,0,0,1-3,3h-22A3,3,0,0,1,1416.22,640Z"/>
      <path opacity='0.6' d="M1398.48,274.11v-22a3,3,0,0,0-3-3h-22a3,3,0,0,0-3,3v22a3,3,0,0,0,3,3h22A3,3,0,0,0,1398.48,274.11Z"/>
      <path opacity='0.6' d="M1398.48,114.9v22a3,3,0,0,1-3,3h-22a3,3,0,0,1-3-3v-22a3,3,0,0,1,3-3h22A3,3,0,0,1,1398.48,114.9Z"/>
      <path isolation='isolate' opacity='0.7' d="M1416.22,343.59v22a3,3,0,0,0,3,3h22a3,3,0,0,0,3-3v-22a3,3,0,0,0-3-3h-22A3,3,0,0,0,1416.22,343.59Z"/>
      <path isolation='isolate' opacity='0.5' d="M1416.22,297.85v22a3,3,0,0,0,3,3h22a3,3,0,0,0,3-3v-22a3,3,0,0,0-3-3h-22A3,3,0,0,0,1416.22,297.85Z"/>
      <path isolation='isolate' opacity='0.5' d="M1416.22,1029.67v22a3,3,0,0,0,3,3h22a3,3,0,0,0,3-3v-22a3,3,0,0,0-3-3h-22A3,3,0,0,0,1416.22,1029.67Z"/>
      <path isolation='isolate' opacity='0.5' d="M1416.22,868.71v-22a3,3,0,0,1,3-3h22a3,3,0,0,1,3,3v22a3,3,0,0,1-3,3h-22A3,3,0,0,1,1416.22,868.71Z"/>
      <path isolation='isolate' opacity='0.5' d="M1370.48,777.23v-22a3,3,0,0,1,3-3h22a3,3,0,0,1,3,3v22a3,3,0,0,1-3,3h-22A3,3,0,0,1,1370.48,777.23Z"/>
      <path isolation='isolate' opacity='0.2' d="M1370.48,389.33v22a3,3,0,0,0,3,3h22a3,3,0,0,0,3-3v-22a3,3,0,0,0-3-3h-22A3,3,0,0,0,1370.48,389.33Z"/>
      <path isolation='isolate' opacity='0.2' d="M1416.22,685.75v-22a3,3,0,0,1,3-3h22a3,3,0,0,1,3,3v22a3,3,0,0,1-3,3h-22A3,3,0,0,1,1416.22,685.75Z"/>
      <path isolation='isolate' opacity='0.2' d="M1444.22,1326.1v-22a3,3,0,0,0-3-3h-22a3,3,0,0,0-3,3v22a3,3,0,0,0,3,3h22A3,3,0,0,0,1444.22,1326.1Z"/>
      <path isolation='isolate' opacity='0.2' d="M1444.22,67.64v22a3,3,0,0,1-3,3h-22a3,3,0,0,1-3-3v-22a3,3,0,0,1,3-3h22A3,3,0,0,1,1444.22,67.64Z"/>
      <path isolation='isolate' opacity='0.2' d="M1444.22,23.42v22a3,3,0,0,1-3,3h-22a3,3,0,0,1-3-3v-22a3,3,0,0,1,3-3h22A3,3,0,0,1,1444.22,23.42Z"/>
      <path isolation='isolate' opacity='0.2' d="M1444.22,1188.89v-22a3,3,0,0,0-3-3h-22a3,3,0,0,0-3,3v22a3,3,0,0,0,3,3h22A3,3,0,0,0,1444.22,1188.89Z"/>
    </g>
    <g opacity='0.3'>
      <path opacity='0.8' d="M1490,709.49v22a3,3,0,0,1-3,3h-22a3,3,0,0,1-3-3v-22a3,3,0,0,1,3-3h22A3,3,0,0,1,1490,709.49Z"/>
      <path opacity='0.8' d="M1490,435.06v22a3,3,0,0,1-3,3h-22a3,3,0,0,1-3-3v-22a3,3,0,0,1,3-3h22A3,3,0,0,1,1490,435.06Z"/>
      <path opacity='0.8' d="M1462,1075.41v22a3,3,0,0,0,3,3h22a3,3,0,0,0,3-3v-22a3,3,0,0,0-3-3h-22A3,3,0,0,0,1462,1075.41Z"/>
      <path opacity='0.8' d="M1462,892.46v22a3,3,0,0,0,3,3h22a3,3,0,0,0,3-3v-22a3,3,0,0,0-3-3h-22A3,3,0,0,0,1462,892.46Z"/>
      <path opacity='0.8' d="M1490,1280.36v-22a3,3,0,0,0-3-3h-22a3,3,0,0,0-3,3v22a3,3,0,0,0,3,3h22A3,3,0,0,0,1490,1280.36Z"/>
      <path opacity='0.8' d="M1490,1005.93v-22a3,3,0,0,0-3-3h-22a3,3,0,0,0-3,3v22a3,3,0,0,0,3,3h22A3,3,0,0,0,1490,1005.93Z"/>
      <path opacity='0.8' d="M1509.74,1029.67v22a3,3,0,0,0,3,3h22a3,3,0,0,0,3-3v-22a3,3,0,0,0-3-3h-22A3,3,0,0,0,1509.74,1029.67Z"/>
      <path opacity='0.8' d="M1537.74,1280.36v-22a3,3,0,0,0-3-3h-22a3,3,0,0,0-3,3v22a3,3,0,0,0,3,3h22A3,3,0,0,0,1537.74,1280.36Z"/>
      <path isolation='isolate' opacity='0.6' d="M1462,823V801a3,3,0,0,1,3-3h22a3,3,0,0,1,3,3v22a3,3,0,0,1-3,3h-22A3,3,0,0,1,1462,823Z"/>
      <path isolation='isolate' opacity='0.6' d="M1462,685.75v-22a3,3,0,0,1,3-3h22a3,3,0,0,1,3,3v22a3,3,0,0,1-3,3h-22A3,3,0,0,1,1462,685.75Z"/>
      <path opacity='0.6' d="M1509.74,297.85v22a3,3,0,0,0,3,3h22a3,3,0,0,0,3-3v-22a3,3,0,0,0-3-3h-22A3,3,0,0,0,1509.74,297.85Z"/>
      <path isolation='isolate' opacity='0.6' d="M1509.74,868.71v-22a3,3,0,0,1,3-3h22a3,3,0,0,1,3,3v22a3,3,0,0,1-3,3h-22A3,3,0,0,1,1509.74,868.71Z"/>
      <path isolation='isolate' opacity='0.5' d="M1490,274.11v-22a3,3,0,0,0-3-3h-22a3,3,0,0,0-3,3v22a3,3,0,0,0,3,3h22A3,3,0,0,0,1490,274.11Z"/>
      <path isolation='isolate' opacity='0.6' d="M1490,1234.62v-22a3,3,0,0,0-3-3h-22a3,3,0,0,0-3,3v22a3,3,0,0,0,3,3h22A3,3,0,0,0,1490,1234.62Z"/>
      <path class="a8cc3a24-2538-4b68-ad22-882c04501f4d" d="M1490,572.28v22a3,3,0,0,1-3,3h-22a3,3,0,0,1-3-3v-22a3,3,0,0,1,3-3h22A3,3,0,0,1,1490,572.28Z"/>
      <path isolation='isolate' opacity='0.5' d="M1537.74,526.54v22a3,3,0,0,1-3,3h-22a3,3,0,0,1-3-3v-22a3,3,0,0,1,3-3h22A3,3,0,0,1,1537.74,526.54Z"/>
      <path isolation='isolate' opacity='0.5' d="M1537.74,114.9v22a3,3,0,0,1-3,3h-22a3,3,0,0,1-3-3v-22a3,3,0,0,1,3-3h22A3,3,0,0,1,1537.74,114.9Z"/>
      <path isolation='isolate' opacity='0.2' d="M1462,343.59v22a3,3,0,0,0,3,3h22a3,3,0,0,0,3-3v-22a3,3,0,0,0-3-3h-22A3,3,0,0,0,1462,343.59Z"/>
      <path isolation='isolate' opacity='0.2' d="M1509.74,983.93v22a3,3,0,0,0,3,3h22a3,3,0,0,0,3-3v-22a3,3,0,0,0-3-3h-22A3,3,0,0,0,1509.74,983.93Z"/>
      <path isolation='isolate' opacity='0.2' d="M1509.74,823V801a3,3,0,0,1,3-3h22a3,3,0,0,1,3,3v22a3,3,0,0,1-3,3h-22A3,3,0,0,1,1509.74,823Z"/>
      <path isolation='isolate' opacity='0.2' d="M1509.74,389.33v22a3,3,0,0,0,3,3h22a3,3,0,0,0,3-3v-22a3,3,0,0,0-3-3h-22A3,3,0,0,0,1509.74,389.33Z"/>
      <path isolation='isolate' opacity='0.2' d="M1509.74,685.75v-22a3,3,0,0,1,3-3h22a3,3,0,0,1,3,3v22a3,3,0,0,1-3,3h-22A3,3,0,0,1,1509.74,685.75Z"/>
      <path isolation='isolate' opacity='0.2' d="M1537.74,228.37v-22a3,3,0,0,0-3-3h-22a3,3,0,0,0-3,3v22a3,3,0,0,0,3,3h22A3,3,0,0,0,1537.74,228.37Z"/>
    </g>
    <g opacity='0.2'>
      <path opacity='0.8' d="M1629.22,526.54v22a3,3,0,0,1-3,3h-22a3,3,0,0,1-3-3v-22a3,3,0,0,1,3-3h22A3,3,0,0,1,1629.22,526.54Z"/>
      <path opacity='0.8' d="M1601.22,435.06v22a3,3,0,0,0,3,3h22a3,3,0,0,0,3-3v-22a3,3,0,0,0-3-3h-22A3,3,0,0,0,1601.22,435.06Z"/>
      <path opacity='0.8' d="M1601.22,938.2v22a3,3,0,0,0,3,3h22a3,3,0,0,0,3-3v-22a3,3,0,0,0-3-3h-22A3,3,0,0,0,1601.22,938.2Z"/>
      <path opacity='0.8' d="M1601.22,777.23v-22a3,3,0,0,1,3-3h22a3,3,0,0,1,3,3v22a3,3,0,0,1-3,3h-22A3,3,0,0,1,1601.22,777.23Z"/>
      <path opacity='0.8' d="M1583.48,1188.89v-22a3,3,0,0,0-3-3h-22a3,3,0,0,0-3,3v22a3,3,0,0,0,3,3h22A3,3,0,0,0,1583.48,1188.89Z"/>
      <path opacity='0.8' d="M1583.48,572.28v22a3,3,0,0,1-3,3h-22a3,3,0,0,1-3-3v-22a3,3,0,0,1,3-3h22A3,3,0,0,1,1583.48,572.28Z"/>
      <path opacity='0.8' d="M1583.48,709.49v22a3,3,0,0,1-3,3h-22a3,3,0,0,1-3-3v-22a3,3,0,0,1,3-3h22A3,3,0,0,1,1583.48,709.49Z"/>
      <path isolation='isolate' opacity='0.6' d="M1583.48,480.8v22a3,3,0,0,1-3,3h-22a3,3,0,0,1-3-3v-22a3,3,0,0,1,3-3h22A3,3,0,0,1,1583.48,480.8Z"/>
      <path isolation='isolate' opacity='0.6' d="M1601.22,640V618a3,3,0,0,1,3-3h22a3,3,0,0,1,3,3v22a3,3,0,0,1-3,3h-22A3,3,0,0,1,1601.22,640Z"/>
      <path opacity='0.6' d="M1583.48,274.11v-22a3,3,0,0,0-3-3h-22a3,3,0,0,0-3,3v22a3,3,0,0,0,3,3h22A3,3,0,0,0,1583.48,274.11Z"/>
      <path isolation='isolate' opacity='0.6' d="M1583.48,1234.62v-22a3,3,0,0,0-3-3h-22a3,3,0,0,0-3,3v22a3,3,0,0,0,3,3h22A3,3,0,0,0,1583.48,1234.62Z"/>
      <path isolation='isolate' opacity='0.5' d="M1601.22,297.85v22a3,3,0,0,0,3,3h22a3,3,0,0,0,3-3v-22a3,3,0,0,0-3-3h-22A3,3,0,0,0,1601.22,297.85Z"/>
      <path isolation='isolate' opacity='0.5' d="M1601.22,1075.41v22a3,3,0,0,0,3,3h22a3,3,0,0,0,3-3v-22a3,3,0,0,0-3-3h-22A3,3,0,0,0,1601.22,1075.41Z"/>
      <path isolation='isolate' opacity='0.5' d="M1601.22,206.46v22a3,3,0,0,0,3,3h22a3,3,0,0,0,3-3v-22a3,3,0,0,0-3-3h-22A3,3,0,0,0,1601.22,206.46Z"/>
      <path isolation='isolate' opacity='0.5' d="M1601.22,182.71v-22a3,3,0,0,1,3-3h22a3,3,0,0,1,3,3v22a3,3,0,0,1-3,3h-22A3,3,0,0,1,1601.22,182.71Z"/>
      <path isolation='isolate' opacity='0.5' d="M1555.48,777.23v-22a3,3,0,0,1,3-3h22a3,3,0,0,1,3,3v22a3,3,0,0,1-3,3h-22A3,3,0,0,1,1555.48,777.23Z"/>
      <path isolation='isolate' opacity='0.2' d="M1555.48,343.59v22a3,3,0,0,0,3,3h22a3,3,0,0,0,3-3v-22a3,3,0,0,0-3-3h-22A3,3,0,0,0,1555.48,343.59Z"/>
      <path isolation='isolate' opacity='0.2' d="M1601.22,685.75v-22a3,3,0,0,1,3-3h22a3,3,0,0,1,3,3v22a3,3,0,0,1-3,3h-22A3,3,0,0,1,1601.22,685.75Z"/>
      <path isolation='isolate' opacity='0.2' d="M1583.48,1326.1v-22a3,3,0,0,0-3-3h-22a3,3,0,0,0-3,3v22a3,3,0,0,0,3,3h22A3,3,0,0,0,1583.48,1326.1Z"/>
      <path isolation='isolate' opacity='0.2' d="M1629.22,1188.89v-22a3,3,0,0,0-3-3h-22a3,3,0,0,0-3,3v22a3,3,0,0,0,3,3h22A3,3,0,0,0,1629.22,1188.89Z"/>
    </g>
    <g id="af972ee6-c30c-4670-99ab-b9034748f5da" data-name="R25" opacity='0.1'>
      <path opacity='0.8' d="M1675,709.49v22a3,3,0,0,1-3,3h-22a3,3,0,0,1-3-3v-22a3,3,0,0,1,3-3h22A3,3,0,0,1,1675,709.49Z"/>
      <path opacity='0.8' d="M1647,389.33v22a3,3,0,0,0,3,3h22a3,3,0,0,0,3-3v-22a3,3,0,0,0-3-3h-22A3,3,0,0,0,1647,389.33Z"/>
      <path opacity='0.8' d="M1647,892.46v22a3,3,0,0,0,3,3h22a3,3,0,0,0,3-3v-22a3,3,0,0,0-3-3h-22A3,3,0,0,0,1647,892.46Z"/>
      <path opacity='0.8' d="M1675,1005.93v-22a3,3,0,0,0-3-3h-22a3,3,0,0,0-3,3v22a3,3,0,0,0,3,3h22A3,3,0,0,0,1675,1005.93Z"/>
      <path isolation='isolate' opacity='0.6' d="M1693.74,868.71v-22a3,3,0,0,1,3-3h22a3,3,0,0,1,3,3v22a3,3,0,0,1-3,3h-22A3,3,0,0,1,1693.74,868.71Z"/>
      <path isolation='isolate' opacity='0.6' d="M1721.74,1143.15v-22a3,3,0,0,0-3-3h-22a3,3,0,0,0-3,3v22a3,3,0,0,0,3,3h22A3,3,0,0,0,1721.74,1143.15Z"/>
      <path isolation='isolate' opacity='0.6' d="M1647,823V801a3,3,0,0,1,3-3h22a3,3,0,0,1,3,3v22a3,3,0,0,1-3,3h-22A3,3,0,0,1,1647,823Z"/>
      <path isolation='isolate' opacity='0.5' d="M1721.74,526.54v22a3,3,0,0,1-3,3h-22a3,3,0,0,1-3-3v-22a3,3,0,0,1,3-3h22A3,3,0,0,1,1721.74,526.54Z"/>
      <path isolation='isolate' opacity='0.5' d="M1675,274.11v-22a3,3,0,0,0-3-3h-22a3,3,0,0,0-3,3v22a3,3,0,0,0,3,3h22A3,3,0,0,0,1675,274.11Z"/>
      <path class="a8cc3a24-2538-4b68-ad22-882c04501f4d" d="M1675,572.28v22a3,3,0,0,1-3,3h-22a3,3,0,0,1-3-3v-22a3,3,0,0,1,3-3h22A3,3,0,0,1,1675,572.28Z"/>
      <path isolation='isolate' opacity='0.2' d="M1693.74,983.93v22a3,3,0,0,0,3,3h22a3,3,0,0,0,3-3v-22a3,3,0,0,0-3-3h-22A3,3,0,0,0,1693.74,983.93Z"/>
      <path isolation='isolate' opacity='0.2' d="M1693.74,685.75v-22a3,3,0,0,1,3-3h22a3,3,0,0,1,3,3v22a3,3,0,0,1-3,3h-22A3,3,0,0,1,1693.74,685.75Z"/>
    </g>
    <g id="af6bf8c5-b2fe-4503-9039-158df10c337e" data-name="L0" opacity='0.8'>
      <path opacity='0.8' d="M665.48,526.54v22a3,3,0,0,0,3,3h22a3,3,0,0,0,3-3v-22a3,3,0,0,0-3-3h-22A3,3,0,0,0,665.48,526.54Z"/>
      <path opacity='0.8' d="M693.48,435.06v22a3,3,0,0,1-3,3h-22a3,3,0,0,1-3-3v-22a3,3,0,0,1,3-3h22A3,3,0,0,1,693.48,435.06Z"/>
      <path opacity='0.8' d="M693.48,938.2v22a3,3,0,0,1-3,3h-22a3,3,0,0,1-3-3v-22a3,3,0,0,1,3-3h22A3,3,0,0,1,693.48,938.2Z"/>
      <path opacity='0.8' d="M693.48,777.23v-22a3,3,0,0,0-3-3h-22a3,3,0,0,0-3,3v22a3,3,0,0,0,3,3h22A3,3,0,0,0,693.48,777.23Z"/>
      <path opacity='0.8' d="M665.48,228.37v-22a3,3,0,0,1,3-3h22a3,3,0,0,1,3,3v22a3,3,0,0,1-3,3h-22A3,3,0,0,1,665.48,228.37Z"/>
      <path opacity='0.8' d="M711.22,1417.58v-22a3,3,0,0,1,3-3h22a3,3,0,0,1,3,3v22a3,3,0,0,1-3,3h-22A3,3,0,0,1,711.22,1417.58Z"/>
      <path opacity='0.8' d="M711.22,160.64v22a3,3,0,0,0,3,3h22a3,3,0,0,0,3-3v-22a3,3,0,0,0-3-3h-22A3,3,0,0,0,711.22,160.64Z"/>
      <path opacity='0.8' d="M665.48,160.64v22a3,3,0,0,0,3,3h22a3,3,0,0,0,3-3v-22a3,3,0,0,0-3-3h-22A3,3,0,0,0,665.48,160.64Z"/>
      <path opacity='0.8' d="M711.22,1234.62v-22a3,3,0,0,1,3-3h22a3,3,0,0,1,3,3v22a3,3,0,0,1-3,3h-22A3,3,0,0,1,711.22,1234.62Z"/>
      <path opacity='0.8' d="M711.22,1188.89v-22a3,3,0,0,1,3-3h22a3,3,0,0,1,3,3v22a3,3,0,0,1-3,3h-22A3,3,0,0,1,711.22,1188.89Z"/>
      <path opacity='0.8' d="M711.22,572.28v22a3,3,0,0,0,3,3h22a3,3,0,0,0,3-3v-22a3,3,0,0,0-3-3h-22A3,3,0,0,0,711.22,572.28Z"/>
      <path opacity='0.8' d="M711.22,709.49v22a3,3,0,0,0,3,3h22a3,3,0,0,0,3-3v-22a3,3,0,0,0-3-3h-22A3,3,0,0,0,711.22,709.49Z"/>
      <path isolation='isolate' opacity='0.6' d="M739.22,1029.67v22a3,3,0,0,1-3,3h-22a3,3,0,0,1-3-3v-22a3,3,0,0,1,3-3h22A3,3,0,0,1,739.22,1029.67Z"/>
      <path isolation='isolate' opacity='0.6' d="M711.22,480.8v22a3,3,0,0,0,3,3h22a3,3,0,0,0,3-3v-22a3,3,0,0,0-3-3h-22A3,3,0,0,0,711.22,480.8Z"/>
      <path isolation='isolate' opacity='0.6' d="M693.48,1121.15v22a3,3,0,0,1-3,3h-22a3,3,0,0,1-3-3v-22a3,3,0,0,1,3-3h22A3,3,0,0,1,693.48,1121.15Z"/>
      <path isolation='isolate' opacity='0.6' d="M693.48,640V618a3,3,0,0,0-3-3h-22a3,3,0,0,0-3,3v22a3,3,0,0,0,3,3h22A3,3,0,0,0,693.48,640Z"/>
      <path opacity='0.6' d="M711.22,274.11v-22a3,3,0,0,1,3-3h22a3,3,0,0,1,3,3v22a3,3,0,0,1-3,3h-22A3,3,0,0,1,711.22,274.11Z"/>
      <path opacity='0.6' d="M711.22,114.9v22a3,3,0,0,0,3,3h22a3,3,0,0,0,3-3v-22a3,3,0,0,0-3-3h-22A3,3,0,0,0,711.22,114.9Z"/>
      <path opacity='0.6' d="M711.22,23.42v22a3,3,0,0,0,3,3h22a3,3,0,0,0,3-3v-22a3,3,0,0,0-3-3h-22A3,3,0,0,0,711.22,23.42Z"/>
      <path isolation='isolate' opacity='0.7' d="M693.48,343.59v22a3,3,0,0,1-3,3h-22a3,3,0,0,1-3-3v-22a3,3,0,0,1,3-3h22A3,3,0,0,1,693.48,343.59Z"/>
      <path isolation='isolate' opacity='0.5' d="M693.48,297.85v22a3,3,0,0,1-3,3h-22a3,3,0,0,1-3-3v-22a3,3,0,0,1,3-3h22A3,3,0,0,1,693.48,297.85Z"/>
      <path isolation='isolate' opacity='0.5' d="M693.48,1029.67v22a3,3,0,0,1-3,3h-22a3,3,0,0,1-3-3v-22a3,3,0,0,1,3-3h22A3,3,0,0,1,693.48,1029.67Z"/>
      <path isolation='isolate' opacity='0.5' d="M693.48,892.46v22a3,3,0,0,1-3,3h-22a3,3,0,0,1-3-3v-22a3,3,0,0,1,3-3h22A3,3,0,0,1,693.48,892.46Z"/>
      <path isolation='isolate' opacity='0.5' d="M693.48,868.71v-22a3,3,0,0,0-3-3h-22a3,3,0,0,0-3,3v22a3,3,0,0,0,3,3h22A3,3,0,0,0,693.48,868.71Z"/>
      <path isolation='isolate' opacity='0.5' d="M739.22,777.23v-22a3,3,0,0,0-3-3h-22a3,3,0,0,0-3,3v22a3,3,0,0,0,3,3h22A3,3,0,0,0,739.22,777.23Z"/>
      <path isolation='isolate' opacity='0.2' d="M665.48,480.8v22a3,3,0,0,0,3,3h22a3,3,0,0,0,3-3v-22a3,3,0,0,0-3-3h-22A3,3,0,0,0,665.48,480.8Z"/>
      <path isolation='isolate' opacity='0.2' d="M739.22,389.33v22a3,3,0,0,1-3,3h-22a3,3,0,0,1-3-3v-22a3,3,0,0,1,3-3h22A3,3,0,0,1,739.22,389.33Z"/>
      <path isolation='isolate' opacity='0.2' d="M693.48,685.75v-22a3,3,0,0,0-3-3h-22a3,3,0,0,0-3,3v22a3,3,0,0,0,3,3h22A3,3,0,0,0,693.48,685.75Z"/>
      <path isolation='isolate' opacity='0.2' d="M665.48,1326.1v-22a3,3,0,0,1,3-3h22a3,3,0,0,1,3,3v22a3,3,0,0,1-3,3h-22A3,3,0,0,1,665.48,1326.1Z"/>
      <path isolation='isolate' opacity='0.2' d="M665.48,67.64v22a3,3,0,0,0,3,3h22a3,3,0,0,0,3-3v-22a3,3,0,0,0-3-3h-22A3,3,0,0,0,665.48,67.64Z"/>
      <path isolation='isolate' opacity='0.2' d="M665.48,1188.89v-22a3,3,0,0,1,3-3h22a3,3,0,0,1,3,3v22a3,3,0,0,1-3,3h-22A3,3,0,0,1,665.48,1188.89Z"/>
      <path isolation='isolate' opacity='0.2' d="M665.48,572.28v22a3,3,0,0,0,3,3h22a3,3,0,0,0,3-3v-22a3,3,0,0,0-3-3h-22A3,3,0,0,0,665.48,572.28Z"/>
    </g>
    <g id="bdd96706-b80e-4680-8a3a-a2c3528dfc48" data-name="L1" opacity='0.7'>
      <path opacity='0.8' d="M619.74,709.49v22a3,3,0,0,0,3,3h22a3,3,0,0,0,3-3v-22a3,3,0,0,0-3-3h-22A3,3,0,0,0,619.74,709.49Z"/>
      <path opacity='0.8' d="M619.74,435.06v22a3,3,0,0,0,3,3h22a3,3,0,0,0,3-3v-22a3,3,0,0,0-3-3h-22A3,3,0,0,0,619.74,435.06Z"/>
      <path opacity='0.8' d="M647.74,389.33v22a3,3,0,0,1-3,3h-22a3,3,0,0,1-3-3v-22a3,3,0,0,1,3-3h22A3,3,0,0,1,647.74,389.33Z"/>
      <path opacity='0.8' d="M647.74,1075.41v22a3,3,0,0,1-3,3h-22a3,3,0,0,1-3-3v-22a3,3,0,0,1,3-3h22A3,3,0,0,1,647.74,1075.41Z"/>
      <path opacity='0.8' d="M647.74,892.46v22a3,3,0,0,1-3,3h-22a3,3,0,0,1-3-3v-22a3,3,0,0,1,3-3h22A3,3,0,0,1,647.74,892.46Z"/>
      <path opacity='0.8' d="M647.74,1121.15v22a3,3,0,0,1-3,3h-22a3,3,0,0,1-3-3v-22a3,3,0,0,1,3-3h22A3,3,0,0,1,647.74,1121.15Z"/>
      <path opacity='0.8' d="M619.74,228.37v-22a3,3,0,0,1,3-3h22a3,3,0,0,1,3,3v22a3,3,0,0,1-3,3h-22A3,3,0,0,1,619.74,228.37Z"/>
      <path id="aed3909d-7c8f-41df-b522-a70cb3165d43" data-name="odd" opacity='0.8' d="M619.74,1280.36v-22a3,3,0,0,1,3-3h22a3,3,0,0,1,3,3v22a3,3,0,0,1-3,3h-22A3,3,0,0,1,619.74,1280.36Z"/>
      <path opacity='0.8' d="M619.74,1005.93v-22a3,3,0,0,1,3-3h22a3,3,0,0,1,3,3v22a3,3,0,0,1-3,3h-22A3,3,0,0,1,619.74,1005.93Z"/>
      <path opacity='0.8' d="M600,1029.67v22a3,3,0,0,1-3,3H575a3,3,0,0,1-3-3v-22a3,3,0,0,1,3-3h22A3,3,0,0,1,600,1029.67Z"/>
      <path opacity='0.8' d="M572,1417.58v-22a3,3,0,0,1,3-3h22a3,3,0,0,1,3,3v22a3,3,0,0,1-3,3H575A3,3,0,0,1,572,1417.58Z"/>
      <path opacity='0.8' d="M572,1280.36v-22a3,3,0,0,1,3-3h22a3,3,0,0,1,3,3v22a3,3,0,0,1-3,3H575A3,3,0,0,1,572,1280.36Z"/>
      <path isolation='isolate' opacity='0.6' d="M647.74,823V801a3,3,0,0,0-3-3h-22a3,3,0,0,0-3,3v22a3,3,0,0,0,3,3h22A3,3,0,0,0,647.74,823Z"/>
      <path isolation='isolate' opacity='0.6' d="M647.74,685.75v-22a3,3,0,0,0-3-3h-22a3,3,0,0,0-3,3v22a3,3,0,0,0,3,3h22A3,3,0,0,0,647.74,685.75Z"/>
      <path opacity='0.6' d="M600,297.85v22a3,3,0,0,1-3,3H575a3,3,0,0,1-3-3v-22a3,3,0,0,1,3-3h22A3,3,0,0,1,600,297.85Z"/>
      <path isolation='isolate' opacity='0.6' d="M600,892.46v22a3,3,0,0,1-3,3H575a3,3,0,0,1-3-3v-22a3,3,0,0,1,3-3h22A3,3,0,0,1,600,892.46Z"/>
      <path isolation='isolate' opacity='0.6' d="M600,868.71v-22a3,3,0,0,0-3-3H575a3,3,0,0,0-3,3v22a3,3,0,0,0,3,3h22A3,3,0,0,0,600,868.71Z"/>
      <path isolation='isolate' opacity='0.6' d="M572,1372v-22a3,3,0,0,1,3-3h22a3,3,0,0,1,3,3v22a3,3,0,0,1-3,3H575A3,3,0,0,1,572,1372Z"/>
      <path opacity='0.6' d="M572,67.64v22a3,3,0,0,0,3,3h22a3,3,0,0,0,3-3v-22a3,3,0,0,0-3-3H575A3,3,0,0,0,572,67.64Z"/>
      <path isolation='isolate' opacity='0.5' d="M619.74,274.11v-22a3,3,0,0,1,3-3h22a3,3,0,0,1,3,3v22a3,3,0,0,1-3,3h-22A3,3,0,0,1,619.74,274.11Z"/>
      <path isolation='isolate' opacity='0.6' d="M619.74,1234.62v-22a3,3,0,0,1,3-3h22a3,3,0,0,1,3,3v22a3,3,0,0,1-3,3h-22A3,3,0,0,1,619.74,1234.62Z"/>
      <path class="a8cc3a24-2538-4b68-ad22-882c04501f4d" d="M619.74,572.28v22a3,3,0,0,0,3,3h22a3,3,0,0,0,3-3v-22a3,3,0,0,0-3-3h-22A3,3,0,0,0,619.74,572.28Z"/>
      <path isolation='isolate' opacity='0.5' d="M572,526.54v22a3,3,0,0,0,3,3h22a3,3,0,0,0,3-3v-22a3,3,0,0,0-3-3H575A3,3,0,0,0,572,526.54Z"/>
      <path isolation='isolate' opacity='0.5' d="M600,1075.41v22a3,3,0,0,1-3,3H575a3,3,0,0,1-3-3v-22a3,3,0,0,1,3-3h22A3,3,0,0,1,600,1075.41Z"/>
      <path isolation='isolate' opacity='0.5' d="M572,114.9v22a3,3,0,0,0,3,3h22a3,3,0,0,0,3-3v-22a3,3,0,0,0-3-3H575A3,3,0,0,0,572,114.9Z"/>
      <path isolation='isolate' opacity='0.5' d="M572,709.49v22a3,3,0,0,0,3,3h22a3,3,0,0,0,3-3v-22a3,3,0,0,0-3-3H575A3,3,0,0,0,572,709.49Z"/>
      <path isolation='isolate' opacity='0.2' d="M647.74,343.59v22a3,3,0,0,1-3,3h-22a3,3,0,0,1-3-3v-22a3,3,0,0,1,3-3h22A3,3,0,0,1,647.74,343.59Z"/>
      <path isolation='isolate' opacity='0.2' d="M600,983.93v22a3,3,0,0,1-3,3H575a3,3,0,0,1-3-3v-22a3,3,0,0,1,3-3h22A3,3,0,0,1,600,983.93Z"/>
      <path isolation='isolate' opacity='0.2' d="M600,823V801a3,3,0,0,0-3-3H575a3,3,0,0,0-3,3v22a3,3,0,0,0,3,3h22A3,3,0,0,0,600,823Z"/>
      <path isolation='isolate' opacity='0.2' d="M600,389.33v22a3,3,0,0,1-3,3H575a3,3,0,0,1-3-3v-22a3,3,0,0,1,3-3h22A3,3,0,0,1,600,389.33Z"/>
      <path isolation='isolate' opacity='0.2' d="M600,685.75v-22a3,3,0,0,0-3-3H575a3,3,0,0,0-3,3v22a3,3,0,0,0,3,3h22A3,3,0,0,0,600,685.75Z"/>
      <path isolation='isolate' opacity='0.2' d="M572,228.37v-22a3,3,0,0,1,3-3h22a3,3,0,0,1,3,3v22a3,3,0,0,1-3,3H575A3,3,0,0,1,572,228.37Z"/>
    </g>
    <g isolation='isolate' opacity='0.6'>
      <path opacity='0.8' d="M480.48,526.54v22a3,3,0,0,0,3,3h22a3,3,0,0,0,3-3v-22a3,3,0,0,0-3-3h-22A3,3,0,0,0,480.48,526.54Z"/>
      <path opacity='0.8' d="M508.48,435.06v22a3,3,0,0,1-3,3h-22a3,3,0,0,1-3-3v-22a3,3,0,0,1,3-3h22A3,3,0,0,1,508.48,435.06Z"/>
      <path opacity='0.8' d="M508.48,938.2v22a3,3,0,0,1-3,3h-22a3,3,0,0,1-3-3v-22a3,3,0,0,1,3-3h22A3,3,0,0,1,508.48,938.2Z"/>
      <path opacity='0.8' d="M508.48,777.23v-22a3,3,0,0,0-3-3h-22a3,3,0,0,0-3,3v22a3,3,0,0,0,3,3h22A3,3,0,0,0,508.48,777.23Z"/>
      <path opacity='0.8' d="M480.48,228.37v-22a3,3,0,0,1,3-3h22a3,3,0,0,1,3,3v22a3,3,0,0,1-3,3h-22A3,3,0,0,1,480.48,228.37Z"/>
      <path opacity='0.8' d="M526.22,23.42v22a3,3,0,0,0,3,3h22a3,3,0,0,0,3-3v-22a3,3,0,0,0-3-3h-22A3,3,0,0,0,526.22,23.42Z"/>
      <path opacity='0.8' d="M480.48,1280.36v-22a3,3,0,0,1,3-3h22a3,3,0,0,1,3,3v22a3,3,0,0,1-3,3h-22A3,3,0,0,1,480.48,1280.36Z"/>
      <path opacity='0.8' d="M526.22,160.64v22a3,3,0,0,0,3,3h22a3,3,0,0,0,3-3v-22a3,3,0,0,0-3-3h-22A3,3,0,0,0,526.22,160.64Z"/>
      <path opacity='0.8' d="M480.48,67.64v22a3,3,0,0,0,3,3h22a3,3,0,0,0,3-3v-22a3,3,0,0,0-3-3h-22A3,3,0,0,0,480.48,67.64Z"/>
      <path opacity='0.8' d="M526.22,1372v-22a3,3,0,0,1,3-3h22a3,3,0,0,1,3,3v22a3,3,0,0,1-3,3h-22A3,3,0,0,1,526.22,1372Z"/>
      <path opacity='0.8' d="M526.22,1188.89v-22a3,3,0,0,1,3-3h22a3,3,0,0,1,3,3v22a3,3,0,0,1-3,3h-22A3,3,0,0,1,526.22,1188.89Z"/>
      <path opacity='0.8' d="M526.22,572.28v22a3,3,0,0,0,3,3h22a3,3,0,0,0,3-3v-22a3,3,0,0,0-3-3h-22A3,3,0,0,0,526.22,572.28Z"/>
      <path opacity='0.8' d="M526.22,709.49v22a3,3,0,0,0,3,3h22a3,3,0,0,0,3-3v-22a3,3,0,0,0-3-3h-22A3,3,0,0,0,526.22,709.49Z"/>
      <path isolation='isolate' opacity='0.6' d="M554.22,1029.67v22a3,3,0,0,1-3,3h-22a3,3,0,0,1-3-3v-22a3,3,0,0,1,3-3h22A3,3,0,0,1,554.22,1029.67Z"/>
      <path isolation='isolate' opacity='0.6' d="M526.22,480.8v22a3,3,0,0,0,3,3h22a3,3,0,0,0,3-3v-22a3,3,0,0,0-3-3h-22A3,3,0,0,0,526.22,480.8Z"/>
      <path isolation='isolate' opacity='0.6' d="M508.48,1121.15v22a3,3,0,0,1-3,3h-22a3,3,0,0,1-3-3v-22a3,3,0,0,1,3-3h22A3,3,0,0,1,508.48,1121.15Z"/>
      <path isolation='isolate' opacity='0.6' d="M508.48,640V618a3,3,0,0,0-3-3h-22a3,3,0,0,0-3,3v22a3,3,0,0,0,3,3h22A3,3,0,0,0,508.48,640Z"/>
      <path opacity='0.6' d="M526.22,274.11v-22a3,3,0,0,1,3-3h22a3,3,0,0,1,3,3v22a3,3,0,0,1-3,3h-22A3,3,0,0,1,526.22,274.11Z"/>
      <path opacity='0.6' d="M526.22,114.9v22a3,3,0,0,0,3,3h22a3,3,0,0,0,3-3v-22a3,3,0,0,0-3-3h-22A3,3,0,0,0,526.22,114.9Z"/>
      <path isolation='isolate' opacity='0.6' d="M526.22,1234.62v-22a3,3,0,0,1,3-3h22a3,3,0,0,1,3,3v22a3,3,0,0,1-3,3h-22A3,3,0,0,1,526.22,1234.62Z"/>
      <path isolation='isolate' opacity='0.5' d="M526.22,526.54v22a3,3,0,0,0,3,3h22a3,3,0,0,0,3-3v-22a3,3,0,0,0-3-3h-22A3,3,0,0,0,526.22,526.54Z"/>
      <path isolation='isolate' opacity='0.7' d="M508.48,343.59v22a3,3,0,0,1-3,3h-22a3,3,0,0,1-3-3v-22a3,3,0,0,1,3-3h22A3,3,0,0,1,508.48,343.59Z"/>
      <path isolation='isolate' opacity='0.5' d="M508.48,297.85v22a3,3,0,0,1-3,3h-22a3,3,0,0,1-3-3v-22a3,3,0,0,1,3-3h22A3,3,0,0,1,508.48,297.85Z"/>
      <path isolation='isolate' opacity='0.5' d="M508.48,1075.41v22a3,3,0,0,1-3,3h-22a3,3,0,0,1-3-3v-22a3,3,0,0,1,3-3h22A3,3,0,0,1,508.48,1075.41Z"/>
      <path isolation='isolate' opacity='0.5' d="M508.48,892.46v22a3,3,0,0,1-3,3h-22a3,3,0,0,1-3-3v-22a3,3,0,0,1,3-3h22A3,3,0,0,1,508.48,892.46Z"/>
      <path isolation='isolate' opacity='0.5' d="M508.48,868.71v-22a3,3,0,0,0-3-3h-22a3,3,0,0,0-3,3v22a3,3,0,0,0,3,3h22A3,3,0,0,0,508.48,868.71Z"/>
      <path isolation='isolate' opacity='0.5' d="M554.22,777.23v-22a3,3,0,0,0-3-3h-22a3,3,0,0,0-3,3v22a3,3,0,0,0,3,3h22A3,3,0,0,0,554.22,777.23Z"/>
      <path isolation='isolate' opacity='0.2' d="M554.22,343.59v22a3,3,0,0,1-3,3h-22a3,3,0,0,1-3-3v-22a3,3,0,0,1,3-3h22A3,3,0,0,1,554.22,343.59Z"/>
      <path isolation='isolate' opacity='0.2' d="M508.48,685.75v-22a3,3,0,0,0-3-3h-22a3,3,0,0,0-3,3v22a3,3,0,0,0,3,3h22A3,3,0,0,0,508.48,685.75Z"/>
      <path isolation='isolate' opacity='0.2' d="M480.48,1326.1v-22a3,3,0,0,1,3-3h22a3,3,0,0,1,3,3v22a3,3,0,0,1-3,3h-22A3,3,0,0,1,480.48,1326.1Z"/>
      <path isolation='isolate' opacity='0.2' d="M480.48,114.9v22a3,3,0,0,0,3,3h22a3,3,0,0,0,3-3v-22a3,3,0,0,0-3-3h-22A3,3,0,0,0,480.48,114.9Z"/>
      <path isolation='isolate' opacity='0.2' d="M480.48,1188.89v-22a3,3,0,0,1,3-3h22a3,3,0,0,1,3,3v22a3,3,0,0,1-3,3h-22A3,3,0,0,1,480.48,1188.89Z"/>
    </g>
    <g id="ba7a4af9-d06e-45db-ad61-02646d64e127" data-name="L7" opacity='0.5'>
      <path opacity='0.8' d="M434.74,709.49v22a3,3,0,0,0,3,3h22a3,3,0,0,0,3-3v-22a3,3,0,0,0-3-3h-22A3,3,0,0,0,434.74,709.49Z"/>
      <path opacity='0.8' d="M434.74,480.8v22a3,3,0,0,0,3,3h22a3,3,0,0,0,3-3v-22a3,3,0,0,0-3-3h-22A3,3,0,0,0,434.74,480.8Z"/>
      <path opacity='0.8' d="M462.74,389.33v22a3,3,0,0,1-3,3h-22a3,3,0,0,1-3-3v-22a3,3,0,0,1,3-3h22A3,3,0,0,1,462.74,389.33Z"/>
      <path opacity='0.8' d="M462.74,1075.41v22a3,3,0,0,1-3,3h-22a3,3,0,0,1-3-3v-22a3,3,0,0,1,3-3h22A3,3,0,0,1,462.74,1075.41Z"/>
      <path opacity='0.8' d="M462.74,892.46v22a3,3,0,0,1-3,3h-22a3,3,0,0,1-3-3v-22a3,3,0,0,1,3-3h22A3,3,0,0,1,462.74,892.46Z"/>
      <path opacity='0.8' d="M434.74,228.37v-22a3,3,0,0,1,3-3h22a3,3,0,0,1,3,3v22a3,3,0,0,1-3,3h-22A3,3,0,0,1,434.74,228.37Z"/>
      <path opacity='0.8' d="M434.74,1005.93v-22a3,3,0,0,1,3-3h22a3,3,0,0,1,3,3v22a3,3,0,0,1-3,3h-22A3,3,0,0,1,434.74,1005.93Z"/>
      <path opacity='0.8' d="M417,1075.67v22a3,3,0,0,1-3,3H392a3,3,0,0,1-3-3v-22a3,3,0,0,1,3-3h22A3,3,0,0,1,417,1075.67Z"/>
      <path opacity='0.8' d="M390.89,1166.89v22a3,3,0,0,0,3,3h22a3,3,0,0,0,3-3v-22a3,3,0,0,0-3-3h-22A3,3,0,0,0,390.89,1166.89Z"/>
      <path isolation='isolate' opacity='0.6' d="M462.74,823V801a3,3,0,0,0-3-3h-22a3,3,0,0,0-3,3v22a3,3,0,0,0,3,3h22A3,3,0,0,0,462.74,823Z"/>
      <path isolation='isolate' opacity='0.6' d="M462.74,685.75v-22a3,3,0,0,0-3-3h-22a3,3,0,0,0-3,3v22a3,3,0,0,0,3,3h22A3,3,0,0,0,462.74,685.75Z"/>
      <path opacity='0.6' d="M417,343.85v22a3,3,0,0,1-3,3H392a3,3,0,0,1-3-3v-22a3,3,0,0,1,3-3h22A3,3,0,0,1,417,343.85Z"/>
      <path isolation='isolate' opacity='0.6' d="M417,938.46v22a3,3,0,0,1-3,3H392a3,3,0,0,1-3-3v-22a3,3,0,0,1,3-3h22A3,3,0,0,1,417,938.46Z"/>
      <path isolation='isolate' opacity='0.6' d="M417,914.71v-22a3,3,0,0,0-3-3H392a3,3,0,0,0-3,3v22a3,3,0,0,0,3,3h22A3,3,0,0,0,417,914.71Z"/>
      <path isolation='isolate' opacity='0.5' d="M434.74,274.11v-22a3,3,0,0,1,3-3h22a3,3,0,0,1,3,3v22a3,3,0,0,1-3,3h-22A3,3,0,0,1,434.74,274.11Z"/>
      <path isolation='isolate' opacity='0.6' d="M434.74,1234.62v-22a3,3,0,0,1,3-3h22a3,3,0,0,1,3,3v22a3,3,0,0,1-3,3h-22A3,3,0,0,1,434.74,1234.62Z"/>
      <path class="a8cc3a24-2538-4b68-ad22-882c04501f4d" d="M434.74,572.28v22a3,3,0,0,0,3,3h22a3,3,0,0,0,3-3v-22a3,3,0,0,0-3-3h-22A3,3,0,0,0,434.74,572.28Z"/>
      <path isolation='isolate' opacity='0.5' d="M389,572.54v22a3,3,0,0,0,3,3h22a3,3,0,0,0,3-3v-22a3,3,0,0,0-3-3H392A3,3,0,0,0,389,572.54Z"/>
      <path isolation='isolate' opacity='0.5' d="M417,1121.41v22a3,3,0,0,1-3,3H392a3,3,0,0,1-3-3v-22a3,3,0,0,1,3-3h22A3,3,0,0,1,417,1121.41Z"/>
      <path isolation='isolate' opacity='0.5' d="M434.74,160.9v22a3,3,0,0,0,3,3h22a3,3,0,0,0,3-3v-22a3,3,0,0,0-3-3h-22A3,3,0,0,0,434.74,160.9Z"/>
      <path isolation='isolate' opacity='0.5' d="M389,755.49v22a3,3,0,0,0,3,3h22a3,3,0,0,0,3-3v-22a3,3,0,0,0-3-3H392A3,3,0,0,0,389,755.49Z"/>
      <path isolation='isolate' opacity='0.2' d="M434.74,526.54v22a3,3,0,0,0,3,3h22a3,3,0,0,0,3-3v-22a3,3,0,0,0-3-3h-22A3,3,0,0,0,434.74,526.54Z"/>
      <path isolation='isolate' opacity='0.2' d="M417,1029.93v22a3,3,0,0,1-3,3H392a3,3,0,0,1-3-3v-22a3,3,0,0,1,3-3h22A3,3,0,0,1,417,1029.93Z"/>
      <path isolation='isolate' opacity='0.2' d="M417,869V847a3,3,0,0,0-3-3H392a3,3,0,0,0-3,3v22a3,3,0,0,0,3,3h22A3,3,0,0,0,417,869Z"/>
      <path isolation='isolate' opacity='0.2' d="M417,435.33v22a3,3,0,0,1-3,3H392a3,3,0,0,1-3-3v-22a3,3,0,0,1,3-3h22A3,3,0,0,1,417,435.33Z"/>
      <path isolation='isolate' opacity='0.2' d="M417,731.75v-22a3,3,0,0,0-3-3H392a3,3,0,0,0-3,3v22a3,3,0,0,0,3,3h22A3,3,0,0,0,417,731.75Z"/>
      <path isolation='isolate' opacity='0.2' d="M389,274.37v-22a3,3,0,0,1,3-3h22a3,3,0,0,1,3,3v22a3,3,0,0,1-3,3H392A3,3,0,0,1,389,274.37Z"/>
    </g>
    <g id="aed9896e-b483-4c7a-8890-5fcab1b684b0" data-name="L10" opacity='0.4'>
      <path opacity='0.8' d="M295.48,526.54v22a3,3,0,0,0,3,3h22a3,3,0,0,0,3-3v-22a3,3,0,0,0-3-3h-22A3,3,0,0,0,295.48,526.54Z"/>
      <path opacity='0.8' d="M323.48,389.33v22a3,3,0,0,1-3,3h-22a3,3,0,0,1-3-3v-22a3,3,0,0,1,3-3h22A3,3,0,0,1,323.48,389.33Z"/>
      <path opacity='0.8' d="M323.48,938.2v22a3,3,0,0,1-3,3h-22a3,3,0,0,1-3-3v-22a3,3,0,0,1,3-3h22A3,3,0,0,1,323.48,938.2Z"/>
      <path opacity='0.8' d="M323.48,777.23v-22a3,3,0,0,0-3-3h-22a3,3,0,0,0-3,3v22a3,3,0,0,0,3,3h22A3,3,0,0,0,323.48,777.23Z"/>
      <path opacity='0.8' d="M295.48,228.37v-22a3,3,0,0,1,3-3h22a3,3,0,0,1,3,3v22a3,3,0,0,1-3,3h-22A3,3,0,0,1,295.48,228.37Z"/>
      <path opacity='0.8' d="M341.22,160.64v22a3,3,0,0,0,3,3h22a3,3,0,0,0,3-3v-22a3,3,0,0,0-3-3h-22A3,3,0,0,0,341.22,160.64Z"/>
      <path opacity='0.8' d="M341.22,1234.62v-22a3,3,0,0,1,3-3h22a3,3,0,0,1,3,3v22a3,3,0,0,1-3,3h-22A3,3,0,0,1,341.22,1234.62Z"/>
      <path opacity='0.8' d="M341.22,1188.89v-22a3,3,0,0,1,3-3h22a3,3,0,0,1,3,3v22a3,3,0,0,1-3,3h-22A3,3,0,0,1,341.22,1188.89Z"/>
      <path opacity='0.8' d="M341.22,572.28v22a3,3,0,0,0,3,3h22a3,3,0,0,0,3-3v-22a3,3,0,0,0-3-3h-22A3,3,0,0,0,341.22,572.28Z"/>
      <path opacity='0.8' d="M341.22,709.49v22a3,3,0,0,0,3,3h22a3,3,0,0,0,3-3v-22a3,3,0,0,0-3-3h-22A3,3,0,0,0,341.22,709.49Z"/>
      <path isolation='isolate' opacity='0.6' d="M369.22,1029.67v22a3,3,0,0,1-3,3h-22a3,3,0,0,1-3-3v-22a3,3,0,0,1,3-3h22A3,3,0,0,1,369.22,1029.67Z"/>
      <path isolation='isolate' opacity='0.6' d="M341.22,480.8v22a3,3,0,0,0,3,3h22a3,3,0,0,0,3-3v-22a3,3,0,0,0-3-3h-22A3,3,0,0,0,341.22,480.8Z"/>
      <path isolation='isolate' opacity='0.6' d="M323.48,640V618a3,3,0,0,0-3-3h-22a3,3,0,0,0-3,3v22a3,3,0,0,0,3,3h22A3,3,0,0,0,323.48,640Z"/>
      <path opacity='0.6' d="M341.22,274.11v-22a3,3,0,0,1,3-3h22a3,3,0,0,1,3,3v22a3,3,0,0,1-3,3h-22A3,3,0,0,1,341.22,274.11Z"/>
      <path opacity='0.6' d="M341.22,114.9v22a3,3,0,0,0,3,3h22a3,3,0,0,0,3-3v-22a3,3,0,0,0-3-3h-22A3,3,0,0,0,341.22,114.9Z"/>
      <path opacity='0.6' d="M341.22,23.42v22a3,3,0,0,0,3,3h22a3,3,0,0,0,3-3v-22a3,3,0,0,0-3-3h-22A3,3,0,0,0,341.22,23.42Z"/>
      <path isolation='isolate' opacity='0.5' d="M323.48,297.85v22a3,3,0,0,1-3,3h-22a3,3,0,0,1-3-3v-22a3,3,0,0,1,3-3h22A3,3,0,0,1,323.48,297.85Z"/>
      <path isolation='isolate' opacity='0.5' d="M323.48,1029.67v22a3,3,0,0,1-3,3h-22a3,3,0,0,1-3-3v-22a3,3,0,0,1,3-3h22A3,3,0,0,1,323.48,1029.67Z"/>
      <path isolation='isolate' opacity='0.5' d="M323.48,868.71v-22a3,3,0,0,0-3-3h-22a3,3,0,0,0-3,3v22a3,3,0,0,0,3,3h22A3,3,0,0,0,323.48,868.71Z"/>
      <path isolation='isolate' opacity='0.2' d="M295.48,480.8v22a3,3,0,0,0,3,3h22a3,3,0,0,0,3-3v-22a3,3,0,0,0-3-3h-22A3,3,0,0,0,295.48,480.8Z"/>
      <path isolation='isolate' opacity='0.2' d="M369.22,343.85v22a3,3,0,0,1-3,3h-22a3,3,0,0,1-3-3v-22a3,3,0,0,1,3-3h22A3,3,0,0,1,369.22,343.85Z"/>
      <path isolation='isolate' opacity='0.2' d="M323.48,685.75v-22a3,3,0,0,0-3-3h-22a3,3,0,0,0-3,3v22a3,3,0,0,0,3,3h22A3,3,0,0,0,323.48,685.75Z"/>
      <path isolation='isolate' opacity='0.2' d="M295.48,1326.1v-22a3,3,0,0,1,3-3h22a3,3,0,0,1,3,3v22a3,3,0,0,1-3,3h-22A3,3,0,0,1,295.48,1326.1Z"/>
      <path isolation='isolate' opacity='0.2' d="M295.48,67.64v22a3,3,0,0,0,3,3h22a3,3,0,0,0,3-3v-22a3,3,0,0,0-3-3h-22A3,3,0,0,0,295.48,67.64Z"/>
      <path isolation='isolate' opacity='0.2' d="M295.48,1188.89v-22a3,3,0,0,1,3-3h22a3,3,0,0,1,3,3v22a3,3,0,0,1-3,3h-22A3,3,0,0,1,295.48,1188.89Z"/>
      <path opacity='0.8' d="M341.22,1417.58v-22a3,3,0,0,1,3-3h22a3,3,0,0,1,3,3v22a3,3,0,0,1-3,3h-22A3,3,0,0,1,341.22,1417.58Z"/>
    </g>
    <g opacity='0.3'>
      <path opacity='0.8' d="M249.74,709.49v22a3,3,0,0,0,3,3h22a3,3,0,0,0,3-3v-22a3,3,0,0,0-3-3h-22A3,3,0,0,0,249.74,709.49Z"/>
      <path opacity='0.8' d="M249.74,435.06v22a3,3,0,0,0,3,3h22a3,3,0,0,0,3-3v-22a3,3,0,0,0-3-3h-22A3,3,0,0,0,249.74,435.06Z"/>
      <path opacity='0.8' d="M277.74,1075.41v22a3,3,0,0,1-3,3h-22a3,3,0,0,1-3-3v-22a3,3,0,0,1,3-3h22A3,3,0,0,1,277.74,1075.41Z"/>
      <path opacity='0.8' d="M277.74,1121.15v22a3,3,0,0,1-3,3h-22a3,3,0,0,1-3-3v-22a3,3,0,0,1,3-3h22A3,3,0,0,1,277.74,1121.15Z"/>
      <path opacity='0.8' d="M249.74,228.37v-22a3,3,0,0,1,3-3h22a3,3,0,0,1,3,3v22a3,3,0,0,1-3,3h-22A3,3,0,0,1,249.74,228.37Z"/>
      <path opacity='0.8' d="M249.74,1005.93v-22a3,3,0,0,1,3-3h22a3,3,0,0,1,3,3v22a3,3,0,0,1-3,3h-22A3,3,0,0,1,249.74,1005.93Z"/>
      <path opacity='0.8' d="M202,1326.1v-22a3,3,0,0,1,3-3h22a3,3,0,0,1,3,3v22a3,3,0,0,1-3,3H205A3,3,0,0,1,202,1326.1Z"/>
      <path opacity='0.8' d="M202,1280.36v-22a3,3,0,0,1,3-3h22a3,3,0,0,1,3,3v22a3,3,0,0,1-3,3H205A3,3,0,0,1,202,1280.36Z"/>
      <path isolation='isolate' opacity='0.6' d="M277.74,823V801a3,3,0,0,0-3-3h-22a3,3,0,0,0-3,3v22a3,3,0,0,0,3,3h22A3,3,0,0,0,277.74,823Z"/>
      <path opacity='0.6' d="M230,297.85v22a3,3,0,0,1-3,3H205a3,3,0,0,1-3-3v-22a3,3,0,0,1,3-3h22A3,3,0,0,1,230,297.85Z"/>
      <path isolation='isolate' opacity='0.6' d="M230,892.46v22a3,3,0,0,1-3,3H205a3,3,0,0,1-3-3v-22a3,3,0,0,1,3-3h22A3,3,0,0,1,230,892.46Z"/>
      <path opacity='0.6' d="M202,67.64v22a3,3,0,0,0,3,3h22a3,3,0,0,0,3-3v-22a3,3,0,0,0-3-3H205A3,3,0,0,0,202,67.64Z"/>
      <path isolation='isolate' opacity='0.5' d="M249.74,274.11v-22a3,3,0,0,1,3-3h22a3,3,0,0,1,3,3v22a3,3,0,0,1-3,3h-22A3,3,0,0,1,249.74,274.11Z"/>
      <path isolation='isolate' opacity='0.6' d="M249.74,1234.62v-22a3,3,0,0,1,3-3h22a3,3,0,0,1,3,3v22a3,3,0,0,1-3,3h-22A3,3,0,0,1,249.74,1234.62Z"/>
      <path class="a8cc3a24-2538-4b68-ad22-882c04501f4d" d="M249.74,572.28v22a3,3,0,0,0,3,3h22a3,3,0,0,0,3-3v-22a3,3,0,0,0-3-3h-22A3,3,0,0,0,249.74,572.28Z"/>
      <path isolation='isolate' opacity='0.5' d="M202,526.54v22a3,3,0,0,0,3,3h22a3,3,0,0,0,3-3v-22a3,3,0,0,0-3-3H205A3,3,0,0,0,202,526.54Z"/>
      <path isolation='isolate' opacity='0.5' d="M230,1075.41v22a3,3,0,0,1-3,3H205a3,3,0,0,1-3-3v-22a3,3,0,0,1,3-3h22A3,3,0,0,1,230,1075.41Z"/>
      <path isolation='isolate' opacity='0.5' d="M202,114.9v22a3,3,0,0,0,3,3h22a3,3,0,0,0,3-3v-22a3,3,0,0,0-3-3H205A3,3,0,0,0,202,114.9Z"/>
      <path isolation='isolate' opacity='0.2' d="M230,983.93v22a3,3,0,0,1-3,3H205a3,3,0,0,1-3-3v-22a3,3,0,0,1,3-3h22A3,3,0,0,1,230,983.93Z"/>
      <path isolation='isolate' opacity='0.2' d="M230,823V801a3,3,0,0,0-3-3H205a3,3,0,0,0-3,3v22a3,3,0,0,0,3,3h22A3,3,0,0,0,230,823Z"/>
      <path isolation='isolate' opacity='0.2' d="M230,685.75v-22a3,3,0,0,0-3-3H205a3,3,0,0,0-3,3v22a3,3,0,0,0,3,3h22A3,3,0,0,0,230,685.75Z"/>
    </g>
    <g opacity='0.2'>
      <path opacity='0.8' d="M141.48,389.33v22a3,3,0,0,1-3,3h-22a3,3,0,0,1-3-3v-22a3,3,0,0,1,3-3h22A3,3,0,0,1,141.48,389.33Z"/>
      <path opacity='0.8' d="M138.48,777.23v-22a3,3,0,0,0-3-3h-22a3,3,0,0,0-3,3v22a3,3,0,0,0,3,3h22A3,3,0,0,0,138.48,777.23Z"/>
      <path opacity='0.8' d="M113.48,228.37v-22a3,3,0,0,1,3-3h22a3,3,0,0,1,3,3v22a3,3,0,0,1-3,3h-22A3,3,0,0,1,113.48,228.37Z"/>
      <path opacity='0.8' d="M156.22,160.64v22a3,3,0,0,0,3,3h22a3,3,0,0,0,3-3v-22a3,3,0,0,0-3-3h-22A3,3,0,0,0,156.22,160.64Z"/>
      <path opacity='0.8' d="M156.22,572.28v22a3,3,0,0,0,3,3h22a3,3,0,0,0,3-3v-22a3,3,0,0,0-3-3h-22A3,3,0,0,0,156.22,572.28Z"/>
      <path opacity='0.8' d="M156.22,709.49v22a3,3,0,0,0,3,3h22a3,3,0,0,0,3-3v-22a3,3,0,0,0-3-3h-22A3,3,0,0,0,156.22,709.49Z"/>
      <path isolation='isolate' opacity='0.6' d="M184.22,1029.67v22a3,3,0,0,1-3,3h-22a3,3,0,0,1-3-3v-22a3,3,0,0,1,3-3h22A3,3,0,0,1,184.22,1029.67Z"/>
      <path isolation='isolate' opacity='0.6' d="M156.22,480.8v22a3,3,0,0,0,3,3h22a3,3,0,0,0,3-3v-22a3,3,0,0,0-3-3h-22A3,3,0,0,0,156.22,480.8Z"/>
      <path isolation='isolate' opacity='0.6' d="M138.48,640V618a3,3,0,0,0-3-3h-22a3,3,0,0,0-3,3v22a3,3,0,0,0,3,3h22A3,3,0,0,0,138.48,640Z"/>
      <path isolation='isolate' opacity='0.5' d="M138.48,1075.41v22a3,3,0,0,1-3,3h-22a3,3,0,0,1-3-3v-22a3,3,0,0,1,3-3h22A3,3,0,0,1,138.48,1075.41Z"/>
      <path isolation='isolate' opacity='0.5' d="M138.48,868.71v-22a3,3,0,0,0-3-3h-22a3,3,0,0,0-3,3v22a3,3,0,0,0,3,3h22A3,3,0,0,0,138.48,868.71Z"/>
      <path isolation='isolate' opacity='0.2' d="M184.22,343.59v22a3,3,0,0,1-3,3h-22a3,3,0,0,1-3-3v-22a3,3,0,0,1,3-3h22A3,3,0,0,1,184.22,343.59Z"/>
      <path isolation='isolate' opacity='0.2' d="M110.48,1188.89v-22a3,3,0,0,1,3-3h22a3,3,0,0,1,3,3v22a3,3,0,0,1-3,3h-22A3,3,0,0,1,110.48,1188.89Z"/>
    </g>
    <g opacity='0.1'>
      <path opacity='0.8' d="M64.74,709.49v22a3,3,0,0,0,3,3h22a3,3,0,0,0,3-3v-22a3,3,0,0,0-3-3h-22A3,3,0,0,0,64.74,709.49Z"/>
      <path opacity='0.8' d="M64.74,480.8v22a3,3,0,0,0,3,3h22a3,3,0,0,0,3-3v-22a3,3,0,0,0-3-3h-22A3,3,0,0,0,64.74,480.8Z"/>
      <path opacity='0.8' d="M92.74,1075.41v22a3,3,0,0,1-3,3h-22a3,3,0,0,1-3-3v-22a3,3,0,0,1,3-3h22A3,3,0,0,1,92.74,1075.41Z"/>
      <path opacity='0.8' d="M64.74,1005.93v-22a3,3,0,0,1,3-3h22a3,3,0,0,1,3,3v22a3,3,0,0,1-3,3h-22A3,3,0,0,1,64.74,1005.93Z"/>
      <path isolation='isolate' opacity='0.6' d="M92.74,823V801a3,3,0,0,0-3-3h-22a3,3,0,0,0-3,3v22a3,3,0,0,0,3,3h22A3,3,0,0,0,92.74,823Z"/>
      <path opacity='0.6' d="M47,343.85v22a3,3,0,0,1-3,3H22a3,3,0,0,1-3-3v-22a3,3,0,0,1,3-3H44A3,3,0,0,1,47,343.85Z"/>
      <path isolation='isolate' opacity='0.6' d="M47,914.71v-22a3,3,0,0,0-3-3H22a3,3,0,0,0-3,3v22a3,3,0,0,0,3,3H44A3,3,0,0,0,47,914.71Z"/>
      <path isolation='isolate' opacity='0.5' d="M64.74,274.11v-22a3,3,0,0,1,3-3h22a3,3,0,0,1,3,3v22a3,3,0,0,1-3,3h-22A3,3,0,0,1,64.74,274.11Z"/>
      <path isolation='isolate' opacity='0.5' d="M19,572.54v22a3,3,0,0,0,3,3H44a3,3,0,0,0,3-3v-22a3,3,0,0,0-3-3H22A3,3,0,0,0,19,572.54Z"/>
      <path isolation='isolate' opacity='0.2' d="M47,1029.93v22a3,3,0,0,1-3,3H22a3,3,0,0,1-3-3v-22a3,3,0,0,1,3-3H44A3,3,0,0,1,47,1029.93Z"/>
      <path isolation='isolate' opacity='0.2' d="M47,435.33v22a3,3,0,0,1-3,3H22a3,3,0,0,1-3-3v-22a3,3,0,0,1,3-3H44A3,3,0,0,1,47,435.33Z"/>
      <path isolation='isolate' opacity='0.2' d="M47,731.75v-22a3,3,0,0,0-3-3H22a3,3,0,0,0-3,3v22a3,3,0,0,0,3,3H44A3,3,0,0,0,47,731.75Z"/>
      <path isolation='isolate' opacity='0.5' d="M64.74,160.9v22a3,3,0,0,0,3,3h22a3,3,0,0,0,3-3v-22a3,3,0,0,0-3-3h-22A3,3,0,0,0,64.74,160.9Z"/>
    </g>
  </g>
</svg>
